<mxfile host="Electron" modified="2024-01-31T21:55:46.884Z" agent="Mozilla/5.0 (Windows NT 10.0; Win64; x64) AppleWebKit/537.36 (KHTML, like Gecko) draw.io/22.1.21 Chrome/120.0.6099.109 Electron/28.1.0 Safari/537.36" etag="GrSOFiTGF_KS7THcJHC2" version="22.1.21" type="device" pages="5">
  <diagram name="System-Level-Activity-Diagram" id="0783ab3e-0a74-02c8-0abd-f7b4e66b4bec">
    <mxGraphModel dx="2049" dy="1243" grid="1" gridSize="10" guides="1" tooltips="1" connect="1" arrows="1" fold="1" page="1" pageScale="1" pageWidth="850" pageHeight="1100" background="none" math="0" shadow="0">
      <root>
        <mxCell id="0" />
        <mxCell id="1" parent="0" />
        <mxCell id="1c1d494c118603dd-1" value="Park Ease System Activity Diagram" style="swimlane;html=1;childLayout=stackLayout;startSize=20;rounded=0;shadow=0;comic=0;labelBackgroundColor=none;strokeWidth=1;fontFamily=Verdana;fontSize=16;align=center;" parent="1" vertex="1">
          <mxGeometry x="230" y="40" width="1300" height="990" as="geometry" />
        </mxCell>
        <mxCell id="1c1d494c118603dd-2" value="Mobile Application" style="swimlane;html=1;startSize=20;fontSize=16;" parent="1c1d494c118603dd-1" vertex="1">
          <mxGeometry y="20" width="320" height="970" as="geometry" />
        </mxCell>
        <mxCell id="hdEn_sop-01IbhTo0KrC-124" value="" style="edgeStyle=orthogonalEdgeStyle;rounded=0;orthogonalLoop=1;jettySize=auto;html=1;" parent="1c1d494c118603dd-2" source="hdEn_sop-01IbhTo0KrC-10" target="hdEn_sop-01IbhTo0KrC-21" edge="1">
          <mxGeometry relative="1" as="geometry" />
        </mxCell>
        <mxCell id="hdEn_sop-01IbhTo0KrC-10" value="" style="ellipse;whiteSpace=wrap;html=1;rounded=0;shadow=0;comic=0;labelBackgroundColor=none;strokeWidth=1;fillColor=#000000;fontFamily=Verdana;fontSize=12;align=center;" parent="1c1d494c118603dd-2" vertex="1">
          <mxGeometry x="20" y="40" width="40" height="40" as="geometry" />
        </mxCell>
        <mxCell id="hdEn_sop-01IbhTo0KrC-153" style="edgeStyle=orthogonalEdgeStyle;rounded=0;orthogonalLoop=1;jettySize=auto;html=1;entryX=0;entryY=0.5;entryDx=0;entryDy=0;" parent="1c1d494c118603dd-2" source="hdEn_sop-01IbhTo0KrC-21" target="hdEn_sop-01IbhTo0KrC-166" edge="1">
          <mxGeometry relative="1" as="geometry">
            <mxPoint x="143" y="146.5" as="targetPoint" />
          </mxGeometry>
        </mxCell>
        <mxCell id="hdEn_sop-01IbhTo0KrC-154" value="&lt;font style=&quot;font-size: 13px;&quot;&gt;Other Users&lt;/font&gt;" style="edgeLabel;html=1;align=center;verticalAlign=middle;resizable=0;points=[];" parent="hdEn_sop-01IbhTo0KrC-153" vertex="1" connectable="0">
          <mxGeometry x="-0.2692" relative="1" as="geometry">
            <mxPoint x="4" y="-17" as="offset" />
          </mxGeometry>
        </mxCell>
        <mxCell id="hdEn_sop-01IbhTo0KrC-21" value="" style="rhombus;whiteSpace=wrap;html=1;" parent="1c1d494c118603dd-2" vertex="1">
          <mxGeometry x="16" y="123" width="47" height="47" as="geometry" />
        </mxCell>
        <mxCell id="hdEn_sop-01IbhTo0KrC-129" style="edgeStyle=orthogonalEdgeStyle;rounded=0;orthogonalLoop=1;jettySize=auto;html=1;entryX=0.5;entryY=0;entryDx=0;entryDy=0;" parent="1c1d494c118603dd-2" target="hdEn_sop-01IbhTo0KrC-128" edge="1">
          <mxGeometry relative="1" as="geometry">
            <mxPoint x="69" y="344" as="sourcePoint" />
          </mxGeometry>
        </mxCell>
        <mxCell id="hdEn_sop-01IbhTo0KrC-35" value="Authenticate" style="rounded=1;whiteSpace=wrap;html=1;shadow=0;comic=0;labelBackgroundColor=none;strokeWidth=1;fontFamily=Verdana;fontSize=16;align=center;arcSize=50;" parent="1c1d494c118603dd-2" vertex="1">
          <mxGeometry x="49" y="314" width="111" height="36" as="geometry" />
        </mxCell>
        <mxCell id="hdEn_sop-01IbhTo0KrC-183" style="edgeStyle=orthogonalEdgeStyle;rounded=0;orthogonalLoop=1;jettySize=auto;html=1;entryX=0;entryY=0.25;entryDx=0;entryDy=0;exitX=0;exitY=0.5;exitDx=0;exitDy=0;" parent="1c1d494c118603dd-2" source="hdEn_sop-01IbhTo0KrC-128" target="hdEn_sop-01IbhTo0KrC-35" edge="1">
          <mxGeometry relative="1" as="geometry">
            <Array as="points">
              <mxPoint x="10" y="404" />
              <mxPoint x="10" y="322" />
            </Array>
          </mxGeometry>
        </mxCell>
        <mxCell id="hdEn_sop-01IbhTo0KrC-194" value="&lt;font style=&quot;font-size: 13px;&quot;&gt;Fails&lt;/font&gt;" style="edgeLabel;html=1;align=center;verticalAlign=middle;resizable=0;points=[];" parent="hdEn_sop-01IbhTo0KrC-183" vertex="1" connectable="0">
          <mxGeometry x="-0.5801" y="1" relative="1" as="geometry">
            <mxPoint x="4" y="-2" as="offset" />
          </mxGeometry>
        </mxCell>
        <mxCell id="hdEn_sop-01IbhTo0KrC-185" style="edgeStyle=orthogonalEdgeStyle;rounded=0;orthogonalLoop=1;jettySize=auto;html=1;entryX=0.5;entryY=0;entryDx=0;entryDy=0;" parent="1c1d494c118603dd-2" source="hdEn_sop-01IbhTo0KrC-128" target="hdEn_sop-01IbhTo0KrC-180" edge="1">
          <mxGeometry relative="1" as="geometry" />
        </mxCell>
        <mxCell id="hdEn_sop-01IbhTo0KrC-186" value="&lt;font style=&quot;font-size: 13px;&quot;&gt;Success&lt;/font&gt;" style="edgeLabel;html=1;align=center;verticalAlign=middle;resizable=0;points=[];" parent="hdEn_sop-01IbhTo0KrC-185" vertex="1" connectable="0">
          <mxGeometry x="-0.1635" relative="1" as="geometry">
            <mxPoint as="offset" />
          </mxGeometry>
        </mxCell>
        <mxCell id="hdEn_sop-01IbhTo0KrC-128" value="" style="rhombus;whiteSpace=wrap;html=1;" parent="1c1d494c118603dd-2" vertex="1">
          <mxGeometry x="75.5" y="380" width="47" height="47" as="geometry" />
        </mxCell>
        <mxCell id="hdEn_sop-01IbhTo0KrC-168" value="" style="edgeStyle=orthogonalEdgeStyle;rounded=0;orthogonalLoop=1;jettySize=auto;html=1;" parent="1c1d494c118603dd-2" source="hdEn_sop-01IbhTo0KrC-166" target="hdEn_sop-01IbhTo0KrC-167" edge="1">
          <mxGeometry relative="1" as="geometry" />
        </mxCell>
        <mxCell id="hdEn_sop-01IbhTo0KrC-166" value="Register" style="rounded=1;whiteSpace=wrap;html=1;shadow=0;comic=0;labelBackgroundColor=none;strokeWidth=1;fontFamily=Verdana;fontSize=16;align=center;arcSize=50;" parent="1c1d494c118603dd-2" vertex="1">
          <mxGeometry x="150" y="80" width="125" height="30" as="geometry" />
        </mxCell>
        <mxCell id="hdEn_sop-01IbhTo0KrC-170" style="edgeStyle=orthogonalEdgeStyle;rounded=0;orthogonalLoop=1;jettySize=auto;html=1;entryX=1;entryY=0.25;entryDx=0;entryDy=0;exitX=1;exitY=0.5;exitDx=0;exitDy=0;" parent="1c1d494c118603dd-2" source="hdEn_sop-01IbhTo0KrC-167" target="hdEn_sop-01IbhTo0KrC-166" edge="1">
          <mxGeometry relative="1" as="geometry">
            <Array as="points">
              <mxPoint x="300" y="164" />
              <mxPoint x="300" y="88" />
            </Array>
          </mxGeometry>
        </mxCell>
        <mxCell id="hdEn_sop-01IbhTo0KrC-171" value="&lt;font style=&quot;font-size: 13px;&quot;&gt;Fails&lt;/font&gt;" style="edgeLabel;html=1;align=center;verticalAlign=middle;resizable=0;points=[];" parent="hdEn_sop-01IbhTo0KrC-170" vertex="1" connectable="0">
          <mxGeometry x="-0.6788" y="-1" relative="1" as="geometry">
            <mxPoint x="1" y="-2" as="offset" />
          </mxGeometry>
        </mxCell>
        <mxCell id="hdEn_sop-01IbhTo0KrC-174" style="edgeStyle=orthogonalEdgeStyle;rounded=0;orthogonalLoop=1;jettySize=auto;html=1;entryX=0.595;entryY=0.176;entryDx=0;entryDy=0;entryPerimeter=0;" parent="1c1d494c118603dd-2" source="hdEn_sop-01IbhTo0KrC-167" target="hdEn_sop-01IbhTo0KrC-175" edge="1">
          <mxGeometry relative="1" as="geometry">
            <mxPoint x="212.5" y="270" as="targetPoint" />
          </mxGeometry>
        </mxCell>
        <mxCell id="hdEn_sop-01IbhTo0KrC-167" value="" style="rhombus;whiteSpace=wrap;html=1;" parent="1c1d494c118603dd-2" vertex="1">
          <mxGeometry x="189" y="140" width="47" height="47" as="geometry" />
        </mxCell>
        <mxCell id="hdEn_sop-01IbhTo0KrC-179" style="edgeStyle=orthogonalEdgeStyle;rounded=0;orthogonalLoop=1;jettySize=auto;html=1;" parent="1c1d494c118603dd-2" source="hdEn_sop-01IbhTo0KrC-175" target="hdEn_sop-01IbhTo0KrC-35" edge="1">
          <mxGeometry relative="1" as="geometry" />
        </mxCell>
        <mxCell id="hdEn_sop-01IbhTo0KrC-175" value="" style="whiteSpace=wrap;html=1;rounded=0;shadow=0;comic=0;labelBackgroundColor=none;strokeWidth=1;fillColor=#000000;fontFamily=Verdana;fontSize=12;align=center;rotation=0;" parent="1c1d494c118603dd-2" vertex="1">
          <mxGeometry x="42" y="270" width="147" height="10" as="geometry" />
        </mxCell>
        <mxCell id="hdEn_sop-01IbhTo0KrC-176" style="edgeStyle=orthogonalEdgeStyle;rounded=0;orthogonalLoop=1;jettySize=auto;html=1;entryX=0.323;entryY=-0.176;entryDx=0;entryDy=0;entryPerimeter=0;" parent="1c1d494c118603dd-2" source="hdEn_sop-01IbhTo0KrC-21" target="hdEn_sop-01IbhTo0KrC-175" edge="1">
          <mxGeometry relative="1" as="geometry" />
        </mxCell>
        <mxCell id="hdEn_sop-01IbhTo0KrC-177" value="&lt;font style=&quot;font-size: 13px;&quot;&gt;Admin User&lt;/font&gt;" style="edgeLabel;html=1;align=center;verticalAlign=middle;resizable=0;points=[];" parent="hdEn_sop-01IbhTo0KrC-176" vertex="1" connectable="0">
          <mxGeometry x="-0.6054" relative="1" as="geometry">
            <mxPoint as="offset" />
          </mxGeometry>
        </mxCell>
        <mxCell id="hdEn_sop-01IbhTo0KrC-190" style="edgeStyle=orthogonalEdgeStyle;rounded=0;orthogonalLoop=1;jettySize=auto;html=1;entryX=0.5;entryY=0;entryDx=0;entryDy=0;exitX=0.25;exitY=1;exitDx=0;exitDy=0;" parent="1c1d494c118603dd-2" source="hdEn_sop-01IbhTo0KrC-180" target="hdEn_sop-01IbhTo0KrC-189" edge="1">
          <mxGeometry relative="1" as="geometry" />
        </mxCell>
        <mxCell id="hdEn_sop-01IbhTo0KrC-192" value="&lt;font style=&quot;font-size: 13px;&quot;&gt;Other Users&lt;/font&gt;" style="edgeLabel;html=1;align=center;verticalAlign=middle;resizable=0;points=[];" parent="hdEn_sop-01IbhTo0KrC-190" vertex="1" connectable="0">
          <mxGeometry x="-0.0585" y="-3" relative="1" as="geometry">
            <mxPoint as="offset" />
          </mxGeometry>
        </mxCell>
        <mxCell id="hdEn_sop-01IbhTo0KrC-180" value="" style="whiteSpace=wrap;html=1;rounded=0;shadow=0;comic=0;labelBackgroundColor=none;strokeWidth=1;fillColor=#000000;fontFamily=Verdana;fontSize=12;align=center;rotation=0;" parent="1c1d494c118603dd-2" vertex="1">
          <mxGeometry x="52.5" y="480" width="93" height="10" as="geometry" />
        </mxCell>
        <mxCell id="hdEn_sop-01IbhTo0KrC-189" value="" style="rhombus;whiteSpace=wrap;html=1;" parent="1c1d494c118603dd-2" vertex="1">
          <mxGeometry x="15.5" y="550" width="47" height="47" as="geometry" />
        </mxCell>
        <mxCell id="hdEn_sop-01IbhTo0KrC-195" value="" style="ellipse;html=1;shape=endState;fillColor=#000000;strokeColor=#ff0000;" parent="1c1d494c118603dd-2" vertex="1">
          <mxGeometry x="67.5" y="920" width="30" height="30" as="geometry" />
        </mxCell>
        <mxCell id="hdEn_sop-01IbhTo0KrC-199" style="edgeStyle=orthogonalEdgeStyle;rounded=0;orthogonalLoop=1;jettySize=auto;html=1;entryX=0.5;entryY=0;entryDx=0;entryDy=0;" parent="1c1d494c118603dd-2" source="hdEn_sop-01IbhTo0KrC-196" target="hdEn_sop-01IbhTo0KrC-195" edge="1">
          <mxGeometry relative="1" as="geometry" />
        </mxCell>
        <mxCell id="hdEn_sop-01IbhTo0KrC-196" value="Sign Out" style="rounded=1;whiteSpace=wrap;html=1;shadow=0;comic=0;labelBackgroundColor=none;strokeWidth=1;fontFamily=Verdana;fontSize=16;align=center;arcSize=50;" parent="1c1d494c118603dd-2" vertex="1">
          <mxGeometry x="32.5" y="850" width="100" height="30" as="geometry" />
        </mxCell>
        <mxCell id="hdEn_sop-01IbhTo0KrC-205" style="edgeStyle=orthogonalEdgeStyle;rounded=0;orthogonalLoop=1;jettySize=auto;html=1;entryX=0.5;entryY=0;entryDx=0;entryDy=0;" parent="1c1d494c118603dd-2" source="hdEn_sop-01IbhTo0KrC-201" target="hdEn_sop-01IbhTo0KrC-196" edge="1">
          <mxGeometry relative="1" as="geometry" />
        </mxCell>
        <mxCell id="hdEn_sop-01IbhTo0KrC-201" value="" style="rhombus;whiteSpace=wrap;html=1;" parent="1c1d494c118603dd-2" vertex="1">
          <mxGeometry x="200" y="791.5" width="47" height="47" as="geometry" />
        </mxCell>
        <mxCell id="1c1d494c118603dd-3" value="System Admin" style="swimlane;html=1;startSize=20;fontSize=16;" parent="1c1d494c118603dd-1" vertex="1">
          <mxGeometry x="320" y="20" width="310" height="970" as="geometry" />
        </mxCell>
        <mxCell id="hdEn_sop-01IbhTo0KrC-54" style="rounded=0;orthogonalLoop=1;jettySize=auto;html=1;dashed=1;endArrow=none;endFill=0;" parent="1c1d494c118603dd-3" source="hdEn_sop-01IbhTo0KrC-15" target="hdEn_sop-01IbhTo0KrC-53" edge="1">
          <mxGeometry relative="1" as="geometry" />
        </mxCell>
        <mxCell id="hdEn_sop-01IbhTo0KrC-15" value="Manage Parking Lot" style="rounded=1;whiteSpace=wrap;html=1;shadow=0;comic=0;labelBackgroundColor=none;strokeWidth=1;fontFamily=Verdana;fontSize=16;align=center;arcSize=50;" parent="1c1d494c118603dd-3" vertex="1">
          <mxGeometry x="15" y="535" width="115" height="45" as="geometry" />
        </mxCell>
        <mxCell id="hdEn_sop-01IbhTo0KrC-53" value="CRUD operation" style="shape=note;whiteSpace=wrap;html=1;rounded=0;shadow=0;comic=0;labelBackgroundColor=none;strokeWidth=1;fontFamily=Verdana;fontSize=16;align=center;size=20;" parent="1c1d494c118603dd-3" vertex="1">
          <mxGeometry x="15" y="619" width="75" height="81" as="geometry" />
        </mxCell>
        <mxCell id="hdEn_sop-01IbhTo0KrC-136" style="rounded=0;orthogonalLoop=1;jettySize=auto;html=1;entryX=0.5;entryY=0;entryDx=0;entryDy=0;exitX=0;exitY=0.5;exitDx=0;exitDy=0;edgeStyle=orthogonalEdgeStyle;" parent="1c1d494c118603dd-3" source="hdEn_sop-01IbhTo0KrC-212" target="hdEn_sop-01IbhTo0KrC-15" edge="1">
          <mxGeometry relative="1" as="geometry">
            <mxPoint x="94.09999999999991" y="545" as="sourcePoint" />
            <Array as="points">
              <mxPoint x="73" y="479" />
            </Array>
          </mxGeometry>
        </mxCell>
        <mxCell id="hdEn_sop-01IbhTo0KrC-137" style="edgeStyle=orthogonalEdgeStyle;rounded=0;orthogonalLoop=1;jettySize=auto;html=1;exitX=1;exitY=0.5;exitDx=0;exitDy=0;entryX=0.5;entryY=0;entryDx=0;entryDy=0;" parent="1c1d494c118603dd-3" source="hdEn_sop-01IbhTo0KrC-212" target="hdEn_sop-01IbhTo0KrC-215" edge="1">
          <mxGeometry relative="1" as="geometry">
            <mxPoint x="240" y="645" as="targetPoint" />
            <mxPoint x="155" y="545" as="sourcePoint" />
          </mxGeometry>
        </mxCell>
        <mxCell id="hdEn_sop-01IbhTo0KrC-218" style="edgeStyle=orthogonalEdgeStyle;rounded=0;orthogonalLoop=1;jettySize=auto;html=1;entryX=0.5;entryY=0;entryDx=0;entryDy=0;" parent="1c1d494c118603dd-3" source="hdEn_sop-01IbhTo0KrC-51" target="hdEn_sop-01IbhTo0KrC-216" edge="1">
          <mxGeometry relative="1" as="geometry" />
        </mxCell>
        <mxCell id="hdEn_sop-01IbhTo0KrC-51" value="Parking Lot" style="rounded=0;whiteSpace=wrap;html=1;shadow=0;comic=0;labelBackgroundColor=none;strokeWidth=1;fontFamily=Verdana;fontSize=16;align=center;arcSize=50;" parent="1c1d494c118603dd-3" vertex="1">
          <mxGeometry x="140" y="644.5" width="100" height="35.5" as="geometry" />
        </mxCell>
        <mxCell id="hdEn_sop-01IbhTo0KrC-55" style="rounded=0;orthogonalLoop=1;jettySize=auto;html=1;entryX=0;entryY=0.5;entryDx=0;entryDy=0;dashed=1;endArrow=none;endFill=0;" parent="1c1d494c118603dd-3" source="hdEn_sop-01IbhTo0KrC-53" target="hdEn_sop-01IbhTo0KrC-51" edge="1">
          <mxGeometry relative="1" as="geometry" />
        </mxCell>
        <mxCell id="hdEn_sop-01IbhTo0KrC-52" value="" style="rounded=0;orthogonalLoop=1;jettySize=auto;html=1;" parent="1c1d494c118603dd-3" source="hdEn_sop-01IbhTo0KrC-15" target="hdEn_sop-01IbhTo0KrC-51" edge="1">
          <mxGeometry relative="1" as="geometry" />
        </mxCell>
        <mxCell id="hdEn_sop-01IbhTo0KrC-212" value="" style="rhombus;whiteSpace=wrap;html=1;" parent="1c1d494c118603dd-3" vertex="1">
          <mxGeometry x="121" y="455.5" width="47" height="47" as="geometry" />
        </mxCell>
        <mxCell id="hdEn_sop-01IbhTo0KrC-217" style="edgeStyle=orthogonalEdgeStyle;rounded=0;orthogonalLoop=1;jettySize=auto;html=1;entryX=1;entryY=0.5;entryDx=0;entryDy=0;" parent="1c1d494c118603dd-3" source="hdEn_sop-01IbhTo0KrC-215" target="hdEn_sop-01IbhTo0KrC-216" edge="1">
          <mxGeometry relative="1" as="geometry">
            <Array as="points">
              <mxPoint x="260" y="764" />
            </Array>
          </mxGeometry>
        </mxCell>
        <mxCell id="hdEn_sop-01IbhTo0KrC-215" value="Manage Parking Lot" style="rounded=1;whiteSpace=wrap;html=1;shadow=0;comic=0;labelBackgroundColor=none;strokeWidth=1;fontFamily=Verdana;fontSize=16;align=center;arcSize=50;" parent="1c1d494c118603dd-3" vertex="1">
          <mxGeometry x="179" y="535" width="120" height="45" as="geometry" />
        </mxCell>
        <mxCell id="hdEn_sop-01IbhTo0KrC-216" value="" style="rhombus;whiteSpace=wrap;html=1;" parent="1c1d494c118603dd-3" vertex="1">
          <mxGeometry x="120.5" y="740" width="47" height="47" as="geometry" />
        </mxCell>
        <mxCell id="1c1d494c118603dd-4" value="Parking Lot Manager" style="swimlane;html=1;startSize=20;fontSize=16;" parent="1c1d494c118603dd-1" vertex="1">
          <mxGeometry x="630" y="20" width="310" height="970" as="geometry" />
        </mxCell>
        <mxCell id="1c1d494c118603dd-27" style="edgeStyle=orthogonalEdgeStyle;rounded=0;html=1;labelBackgroundColor=none;startArrow=none;startFill=0;startSize=5;endArrow=classicThin;endFill=1;endSize=5;jettySize=auto;orthogonalLoop=1;strokeWidth=1;fontFamily=Verdana;fontSize=12" parent="1c1d494c118603dd-4" edge="1">
          <mxGeometry relative="1" as="geometry">
            <mxPoint x="100" y="110" as="targetPoint" />
          </mxGeometry>
        </mxCell>
        <mxCell id="hdEn_sop-01IbhTo0KrC-145" style="edgeStyle=orthogonalEdgeStyle;rounded=0;orthogonalLoop=1;jettySize=auto;html=1;entryX=0.5;entryY=0;entryDx=0;entryDy=0;exitX=0;exitY=0.5;exitDx=0;exitDy=0;fontSize=16;" parent="1c1d494c118603dd-4" source="hdEn_sop-01IbhTo0KrC-208" target="hdEn_sop-01IbhTo0KrC-144" edge="1">
          <mxGeometry relative="1" as="geometry">
            <mxPoint x="71" y="223.99999999999977" as="sourcePoint" />
            <Array as="points">
              <mxPoint x="80" y="164" />
            </Array>
          </mxGeometry>
        </mxCell>
        <mxCell id="hdEn_sop-01IbhTo0KrC-148" style="edgeStyle=orthogonalEdgeStyle;rounded=0;orthogonalLoop=1;jettySize=auto;html=1;entryX=0.5;entryY=0;entryDx=0;entryDy=0;exitX=1;exitY=0.5;exitDx=0;exitDy=0;fontSize=16;" parent="1c1d494c118603dd-4" source="hdEn_sop-01IbhTo0KrC-208" target="hdEn_sop-01IbhTo0KrC-146" edge="1">
          <mxGeometry relative="1" as="geometry">
            <mxPoint x="176.00000000000045" y="226" as="sourcePoint" />
          </mxGeometry>
        </mxCell>
        <mxCell id="hdEn_sop-01IbhTo0KrC-210" style="edgeStyle=orthogonalEdgeStyle;rounded=0;orthogonalLoop=1;jettySize=auto;html=1;entryX=0;entryY=0.5;entryDx=0;entryDy=0;exitX=0.5;exitY=1;exitDx=0;exitDy=0;fontSize=16;" parent="1c1d494c118603dd-4" source="hdEn_sop-01IbhTo0KrC-144" target="hdEn_sop-01IbhTo0KrC-209" edge="1">
          <mxGeometry relative="1" as="geometry" />
        </mxCell>
        <mxCell id="hdEn_sop-01IbhTo0KrC-144" value="Manage Parking Slots" style="rounded=1;whiteSpace=wrap;html=1;shadow=0;comic=0;labelBackgroundColor=none;strokeWidth=1;fontFamily=Verdana;fontSize=16;align=center;arcSize=50;" parent="1c1d494c118603dd-4" vertex="1">
          <mxGeometry x="20" y="270" width="120" height="50" as="geometry" />
        </mxCell>
        <mxCell id="hdEn_sop-01IbhTo0KrC-211" style="edgeStyle=orthogonalEdgeStyle;rounded=0;orthogonalLoop=1;jettySize=auto;html=1;entryX=1;entryY=0.5;entryDx=0;entryDy=0;exitX=0.5;exitY=1;exitDx=0;exitDy=0;fontSize=16;" parent="1c1d494c118603dd-4" source="hdEn_sop-01IbhTo0KrC-146" target="hdEn_sop-01IbhTo0KrC-209" edge="1">
          <mxGeometry relative="1" as="geometry" />
        </mxCell>
        <mxCell id="hdEn_sop-01IbhTo0KrC-146" value="Generate Report" style="rounded=1;whiteSpace=wrap;html=1;shadow=0;comic=0;labelBackgroundColor=none;strokeWidth=1;fontFamily=Verdana;fontSize=16;align=center;arcSize=50;" parent="1c1d494c118603dd-4" vertex="1">
          <mxGeometry x="190" y="270" width="110" height="50" as="geometry" />
        </mxCell>
        <mxCell id="hdEn_sop-01IbhTo0KrC-208" value="" style="rhombus;whiteSpace=wrap;html=1;fontSize=16;" parent="1c1d494c118603dd-4" vertex="1">
          <mxGeometry x="131" y="140" width="47" height="47" as="geometry" />
        </mxCell>
        <mxCell id="hdEn_sop-01IbhTo0KrC-209" value="" style="rhombus;whiteSpace=wrap;html=1;fontSize=16;" parent="1c1d494c118603dd-4" vertex="1">
          <mxGeometry x="113" y="410" width="47" height="47" as="geometry" />
        </mxCell>
        <mxCell id="XSa23yz3CB0TiozX-aeU-1" value="Driver" style="swimlane;html=1;startSize=20;fontSize=16;" parent="1c1d494c118603dd-1" vertex="1">
          <mxGeometry x="940" y="20" width="360" height="970" as="geometry" />
        </mxCell>
        <mxCell id="hdEn_sop-01IbhTo0KrC-121" style="rounded=0;orthogonalLoop=1;jettySize=auto;html=1;entryX=0.5;entryY=0;entryDx=0;entryDy=0;endArrow=none;endFill=0;dashed=1;fontSize=16;" parent="XSa23yz3CB0TiozX-aeU-1" source="hdEn_sop-01IbhTo0KrC-18" target="hdEn_sop-01IbhTo0KrC-119" edge="1">
          <mxGeometry relative="1" as="geometry" />
        </mxCell>
        <mxCell id="hdEn_sop-01IbhTo0KrC-18" value="Reserve Parking Slot" style="rounded=1;whiteSpace=wrap;html=1;shadow=0;comic=0;labelBackgroundColor=none;strokeWidth=1;fontFamily=Verdana;fontSize=16;align=center;arcSize=50;" parent="XSa23yz3CB0TiozX-aeU-1" vertex="1">
          <mxGeometry x="120" y="113" width="154" height="40" as="geometry" />
        </mxCell>
        <mxCell id="hdEn_sop-01IbhTo0KrC-64" style="rounded=0;orthogonalLoop=1;jettySize=auto;html=1;entryX=0.5;entryY=0;entryDx=0;entryDy=0;fontSize=16;" parent="XSa23yz3CB0TiozX-aeU-1" source="hdEn_sop-01IbhTo0KrC-61" target="hdEn_sop-01IbhTo0KrC-63" edge="1">
          <mxGeometry relative="1" as="geometry" />
        </mxCell>
        <mxCell id="hdEn_sop-01IbhTo0KrC-61" value="Look up Reservation activity diagram" style="shape=note;whiteSpace=wrap;html=1;rounded=0;shadow=0;comic=0;labelBackgroundColor=none;strokeWidth=1;fontFamily=Verdana;fontSize=16;align=center;size=20;" parent="XSa23yz3CB0TiozX-aeU-1" vertex="1">
          <mxGeometry x="45" y="194" width="120" height="90" as="geometry" />
        </mxCell>
        <mxCell id="hdEn_sop-01IbhTo0KrC-73" style="rounded=0;orthogonalLoop=1;jettySize=auto;html=1;entryX=0.5;entryY=0;entryDx=0;entryDy=0;dashed=1;endArrow=none;endFill=0;fontSize=16;" parent="XSa23yz3CB0TiozX-aeU-1" source="hdEn_sop-01IbhTo0KrC-63" target="hdEn_sop-01IbhTo0KrC-72" edge="1">
          <mxGeometry relative="1" as="geometry" />
        </mxCell>
        <mxCell id="hdEn_sop-01IbhTo0KrC-63" value="Check In" style="rounded=1;whiteSpace=wrap;html=1;shadow=0;comic=0;labelBackgroundColor=none;strokeWidth=1;fontFamily=Verdana;fontSize=16;align=center;arcSize=50;" parent="XSa23yz3CB0TiozX-aeU-1" vertex="1">
          <mxGeometry x="120" y="329" width="120" height="30" as="geometry" />
        </mxCell>
        <mxCell id="hdEn_sop-01IbhTo0KrC-65" value="Look up Check In activity diagram" style="shape=note;whiteSpace=wrap;html=1;rounded=0;shadow=0;comic=0;labelBackgroundColor=none;strokeWidth=1;fontFamily=Verdana;fontSize=16;align=center;size=20;" parent="XSa23yz3CB0TiozX-aeU-1" vertex="1">
          <mxGeometry x="25" y="399" width="130" height="100" as="geometry" />
        </mxCell>
        <mxCell id="hdEn_sop-01IbhTo0KrC-67" value="Check Out" style="rounded=1;whiteSpace=wrap;html=1;shadow=0;comic=0;labelBackgroundColor=none;strokeWidth=1;fontFamily=Verdana;fontSize=16;align=center;arcSize=50;" parent="XSa23yz3CB0TiozX-aeU-1" vertex="1">
          <mxGeometry x="120" y="570" width="150" height="31" as="geometry" />
        </mxCell>
        <mxCell id="hdEn_sop-01IbhTo0KrC-68" style="rounded=0;orthogonalLoop=1;jettySize=auto;html=1;dashed=1;fontSize=16;" parent="XSa23yz3CB0TiozX-aeU-1" source="hdEn_sop-01IbhTo0KrC-63" target="hdEn_sop-01IbhTo0KrC-65" edge="1">
          <mxGeometry relative="1" as="geometry" />
        </mxCell>
        <mxCell id="hdEn_sop-01IbhTo0KrC-69" style="rounded=0;orthogonalLoop=1;jettySize=auto;html=1;entryX=0;entryY=0;entryDx=100;entryDy=10;entryPerimeter=0;dashed=1;fontSize=16;" parent="XSa23yz3CB0TiozX-aeU-1" source="hdEn_sop-01IbhTo0KrC-18" target="hdEn_sop-01IbhTo0KrC-61" edge="1">
          <mxGeometry relative="1" as="geometry" />
        </mxCell>
        <mxCell id="hdEn_sop-01IbhTo0KrC-70" style="rounded=0;orthogonalLoop=1;jettySize=auto;html=1;entryX=0.442;entryY=0.033;entryDx=0;entryDy=0;entryPerimeter=0;fontSize=16;" parent="XSa23yz3CB0TiozX-aeU-1" source="hdEn_sop-01IbhTo0KrC-65" target="hdEn_sop-01IbhTo0KrC-67" edge="1">
          <mxGeometry relative="1" as="geometry" />
        </mxCell>
        <mxCell id="hdEn_sop-01IbhTo0KrC-72" value="Check In Log" style="rounded=0;whiteSpace=wrap;html=1;shadow=0;comic=0;labelBackgroundColor=none;strokeWidth=1;fontFamily=Verdana;fontSize=16;align=center;arcSize=50;" parent="XSa23yz3CB0TiozX-aeU-1" vertex="1">
          <mxGeometry x="224.5" y="428.75" width="122" height="40.5" as="geometry" />
        </mxCell>
        <mxCell id="hdEn_sop-01IbhTo0KrC-74" style="rounded=0;orthogonalLoop=1;jettySize=auto;html=1;entryX=0.991;entryY=0.507;entryDx=0;entryDy=0;entryPerimeter=0;dashed=1;endArrow=none;endFill=0;fontSize=16;" parent="XSa23yz3CB0TiozX-aeU-1" source="hdEn_sop-01IbhTo0KrC-72" target="hdEn_sop-01IbhTo0KrC-65" edge="1">
          <mxGeometry relative="1" as="geometry" />
        </mxCell>
        <mxCell id="hdEn_sop-01IbhTo0KrC-117" value="Look up Check Out activity diagram" style="shape=note;whiteSpace=wrap;html=1;rounded=0;shadow=0;comic=0;labelBackgroundColor=none;strokeWidth=1;fontFamily=Verdana;fontSize=16;align=center;size=20;" parent="XSa23yz3CB0TiozX-aeU-1" vertex="1">
          <mxGeometry x="45" y="680" width="110" height="100" as="geometry" />
        </mxCell>
        <mxCell id="hdEn_sop-01IbhTo0KrC-118" style="rounded=0;orthogonalLoop=1;jettySize=auto;html=1;entryX=0;entryY=0;entryDx=100;entryDy=10;entryPerimeter=0;dashed=1;fontSize=16;" parent="XSa23yz3CB0TiozX-aeU-1" source="hdEn_sop-01IbhTo0KrC-67" target="hdEn_sop-01IbhTo0KrC-117" edge="1">
          <mxGeometry relative="1" as="geometry" />
        </mxCell>
        <mxCell id="hdEn_sop-01IbhTo0KrC-119" value="Reservation" style="rounded=0;whiteSpace=wrap;html=1;shadow=0;comic=0;labelBackgroundColor=none;strokeWidth=1;fontFamily=Verdana;fontSize=16;align=center;arcSize=50;" parent="XSa23yz3CB0TiozX-aeU-1" vertex="1">
          <mxGeometry x="231" y="216" width="109" height="46" as="geometry" />
        </mxCell>
        <mxCell id="hdEn_sop-01IbhTo0KrC-122" style="rounded=0;orthogonalLoop=1;jettySize=auto;html=1;entryX=1.038;entryY=0.494;entryDx=0;entryDy=0;entryPerimeter=0;dashed=1;endArrow=none;endFill=0;fontSize=16;" parent="XSa23yz3CB0TiozX-aeU-1" source="hdEn_sop-01IbhTo0KrC-119" target="hdEn_sop-01IbhTo0KrC-61" edge="1">
          <mxGeometry relative="1" as="geometry" />
        </mxCell>
        <mxCell id="hdEn_sop-01IbhTo0KrC-157" style="edgeStyle=orthogonalEdgeStyle;rounded=0;orthogonalLoop=1;jettySize=auto;html=1;exitX=1;exitY=0.5;exitDx=0;exitDy=0;entryX=0.5;entryY=0;entryDx=0;entryDy=0;" parent="1c1d494c118603dd-1" source="hdEn_sop-01IbhTo0KrC-189" target="hdEn_sop-01IbhTo0KrC-208" edge="1">
          <mxGeometry relative="1" as="geometry">
            <mxPoint x="360" y="167" as="sourcePoint" />
            <mxPoint x="730" y="190" as="targetPoint" />
            <Array as="points">
              <mxPoint x="240" y="594" />
              <mxPoint x="240" y="210" />
              <mxPoint x="460" y="210" />
              <mxPoint x="460" y="120" />
              <mxPoint x="785" y="120" />
            </Array>
          </mxGeometry>
        </mxCell>
        <mxCell id="hdEn_sop-01IbhTo0KrC-160" value="&lt;font style=&quot;font-size: 13px;&quot;&gt;Parking Lot Manager&lt;/font&gt;" style="edgeLabel;html=1;align=center;verticalAlign=middle;resizable=0;points=[];" parent="hdEn_sop-01IbhTo0KrC-157" vertex="1" connectable="0">
          <mxGeometry x="-0.8586" y="2" relative="1" as="geometry">
            <mxPoint x="-7" y="1" as="offset" />
          </mxGeometry>
        </mxCell>
        <mxCell id="hdEn_sop-01IbhTo0KrC-158" style="edgeStyle=orthogonalEdgeStyle;rounded=0;orthogonalLoop=1;jettySize=auto;html=1;entryX=0.6;entryY=0;entryDx=0;entryDy=0;exitX=0.5;exitY=1;exitDx=0;exitDy=0;entryPerimeter=0;" parent="1c1d494c118603dd-1" source="hdEn_sop-01IbhTo0KrC-189" target="hdEn_sop-01IbhTo0KrC-18" edge="1">
          <mxGeometry relative="1" as="geometry">
            <mxPoint x="167" y="90" as="sourcePoint" />
            <Array as="points">
              <mxPoint x="39" y="690" />
              <mxPoint x="280" y="690" />
              <mxPoint x="280" y="240" />
              <mxPoint x="390" y="240" />
              <mxPoint x="390" y="90" />
              <mxPoint x="1156" y="90" />
            </Array>
          </mxGeometry>
        </mxCell>
        <mxCell id="hdEn_sop-01IbhTo0KrC-159" value="&lt;font style=&quot;font-size: 13px;&quot;&gt;Driver&lt;/font&gt;" style="edgeLabel;html=1;align=center;verticalAlign=middle;resizable=0;points=[];" parent="hdEn_sop-01IbhTo0KrC-158" vertex="1" connectable="0">
          <mxGeometry x="-0.9384" y="3" relative="1" as="geometry">
            <mxPoint x="70" y="16" as="offset" />
          </mxGeometry>
        </mxCell>
        <mxCell id="hdEn_sop-01IbhTo0KrC-188" style="edgeStyle=orthogonalEdgeStyle;rounded=0;orthogonalLoop=1;jettySize=auto;html=1;entryX=0.5;entryY=0;entryDx=0;entryDy=0;exitX=0.75;exitY=1;exitDx=0;exitDy=0;" parent="1c1d494c118603dd-1" source="hdEn_sop-01IbhTo0KrC-180" target="hdEn_sop-01IbhTo0KrC-212" edge="1">
          <mxGeometry relative="1" as="geometry">
            <mxPoint x="475" y="555" as="targetPoint" />
            <Array as="points">
              <mxPoint x="120" y="510" />
              <mxPoint x="120" y="550" />
              <mxPoint x="220" y="550" />
              <mxPoint x="220" y="440" />
              <mxPoint x="465" y="440" />
            </Array>
          </mxGeometry>
        </mxCell>
        <mxCell id="hdEn_sop-01IbhTo0KrC-191" value="&lt;font style=&quot;font-size: 13px;&quot;&gt;Admin User&lt;/font&gt;" style="edgeLabel;html=1;align=center;verticalAlign=middle;resizable=0;points=[];" parent="hdEn_sop-01IbhTo0KrC-188" vertex="1" connectable="0">
          <mxGeometry x="-0.7184" relative="1" as="geometry">
            <mxPoint x="30" y="-2" as="offset" />
          </mxGeometry>
        </mxCell>
        <mxCell id="hdEn_sop-01IbhTo0KrC-203" style="edgeStyle=orthogonalEdgeStyle;rounded=0;orthogonalLoop=1;jettySize=auto;html=1;entryX=1;entryY=0.5;entryDx=0;entryDy=0;exitX=0.5;exitY=1;exitDx=0;exitDy=0;" parent="1c1d494c118603dd-1" source="hdEn_sop-01IbhTo0KrC-209" target="hdEn_sop-01IbhTo0KrC-201" edge="1">
          <mxGeometry relative="1" as="geometry">
            <mxPoint x="790" y="510" as="sourcePoint" />
            <Array as="points">
              <mxPoint x="767" y="835" />
            </Array>
          </mxGeometry>
        </mxCell>
        <mxCell id="hdEn_sop-01IbhTo0KrC-204" style="edgeStyle=orthogonalEdgeStyle;rounded=0;orthogonalLoop=1;jettySize=auto;html=1;entryX=0.5;entryY=1;entryDx=0;entryDy=0;" parent="1c1d494c118603dd-1" source="hdEn_sop-01IbhTo0KrC-117" target="hdEn_sop-01IbhTo0KrC-201" edge="1">
          <mxGeometry relative="1" as="geometry">
            <Array as="points">
              <mxPoint x="1030" y="900" />
              <mxPoint x="224" y="900" />
            </Array>
          </mxGeometry>
        </mxCell>
        <mxCell id="hdEn_sop-01IbhTo0KrC-219" style="edgeStyle=orthogonalEdgeStyle;rounded=0;orthogonalLoop=1;jettySize=auto;html=1;entryX=0.5;entryY=0;entryDx=0;entryDy=0;" parent="1c1d494c118603dd-1" source="hdEn_sop-01IbhTo0KrC-216" target="hdEn_sop-01IbhTo0KrC-201" edge="1">
          <mxGeometry relative="1" as="geometry" />
        </mxCell>
      </root>
    </mxGraphModel>
  </diagram>
  <diagram id="broC721Wi1BwFoPvXpqb" name="Reservation Activity Diagram">
    <mxGraphModel dx="1687" dy="1024" grid="1" gridSize="10" guides="1" tooltips="1" connect="1" arrows="1" fold="1" page="1" pageScale="1" pageWidth="1400" pageHeight="850" math="0" shadow="0">
      <root>
        <mxCell id="0" />
        <mxCell id="1" parent="0" />
        <mxCell id="EJryjW5xoQ4JVEAHy3Wa-1" value="Reservation Activity Diagram" style="swimlane;html=1;childLayout=stackLayout;startSize=20;rounded=0;shadow=0;comic=0;labelBackgroundColor=none;strokeWidth=1;fontFamily=Verdana;fontSize=16;align=center;" parent="1" vertex="1">
          <mxGeometry x="270" y="40" width="770" height="850" as="geometry" />
        </mxCell>
        <mxCell id="EJryjW5xoQ4JVEAHy3Wa-2" value="Driver" style="swimlane;html=1;startSize=20;fontSize=16;" parent="EJryjW5xoQ4JVEAHy3Wa-1" vertex="1">
          <mxGeometry y="20" width="370" height="830" as="geometry" />
        </mxCell>
        <mxCell id="NlVoWU5lFs30DvHXOAMO-11" value="" style="edgeStyle=orthogonalEdgeStyle;rounded=0;orthogonalLoop=1;jettySize=auto;html=1;" parent="EJryjW5xoQ4JVEAHy3Wa-2" source="EJryjW5xoQ4JVEAHy3Wa-4" target="NlVoWU5lFs30DvHXOAMO-9" edge="1">
          <mxGeometry relative="1" as="geometry" />
        </mxCell>
        <mxCell id="EJryjW5xoQ4JVEAHy3Wa-4" value="" style="ellipse;whiteSpace=wrap;html=1;rounded=0;shadow=0;comic=0;labelBackgroundColor=none;strokeWidth=1;fillColor=#000000;fontFamily=Verdana;fontSize=12;align=center;" parent="EJryjW5xoQ4JVEAHy3Wa-2" vertex="1">
          <mxGeometry x="20" y="30" width="40" height="40" as="geometry" />
        </mxCell>
        <mxCell id="EJryjW5xoQ4JVEAHy3Wa-16" value="Open Map Screen" style="rounded=1;whiteSpace=wrap;html=1;shadow=0;comic=0;labelBackgroundColor=none;strokeWidth=1;fontFamily=Verdana;fontSize=16;align=center;arcSize=50;" parent="EJryjW5xoQ4JVEAHy3Wa-2" vertex="1">
          <mxGeometry x="5" y="162" width="135" height="40" as="geometry" />
        </mxCell>
        <mxCell id="EJryjW5xoQ4JVEAHy3Wa-29" value="" style="ellipse;html=1;shape=endState;fillColor=#000000;strokeColor=#ff0000;" parent="EJryjW5xoQ4JVEAHy3Wa-2" vertex="1">
          <mxGeometry x="20" y="710" width="30" height="30" as="geometry" />
        </mxCell>
        <mxCell id="NlVoWU5lFs30DvHXOAMO-15" style="edgeStyle=orthogonalEdgeStyle;rounded=0;orthogonalLoop=1;jettySize=auto;html=1;" parent="EJryjW5xoQ4JVEAHy3Wa-2" source="NlVoWU5lFs30DvHXOAMO-9" target="NlVoWU5lFs30DvHXOAMO-14" edge="1">
          <mxGeometry relative="1" as="geometry" />
        </mxCell>
        <mxCell id="NlVoWU5lFs30DvHXOAMO-17" value="&lt;font style=&quot;font-size: 13px;&quot;&gt;Location Diabled&lt;/font&gt;" style="edgeLabel;html=1;align=center;verticalAlign=middle;resizable=0;points=[];" parent="NlVoWU5lFs30DvHXOAMO-15" vertex="1" connectable="0">
          <mxGeometry x="0.3598" y="2" relative="1" as="geometry">
            <mxPoint x="20" y="-2" as="offset" />
          </mxGeometry>
        </mxCell>
        <mxCell id="bKU2ByUIx8T1dFcf_QMc-4" style="edgeStyle=orthogonalEdgeStyle;rounded=0;orthogonalLoop=1;jettySize=auto;html=1;entryX=1;entryY=0.5;entryDx=0;entryDy=0;" edge="1" parent="EJryjW5xoQ4JVEAHy3Wa-2" source="NlVoWU5lFs30DvHXOAMO-9" target="EJryjW5xoQ4JVEAHy3Wa-16">
          <mxGeometry relative="1" as="geometry">
            <Array as="points">
              <mxPoint x="287" y="182" />
            </Array>
          </mxGeometry>
        </mxCell>
        <mxCell id="bKU2ByUIx8T1dFcf_QMc-5" value="&lt;font style=&quot;font-size: 13px;&quot;&gt;Location Enabled&lt;/font&gt;" style="edgeLabel;html=1;align=center;verticalAlign=middle;resizable=0;points=[];" vertex="1" connectable="0" parent="bKU2ByUIx8T1dFcf_QMc-4">
          <mxGeometry x="0.3858" y="1" relative="1" as="geometry">
            <mxPoint x="15" as="offset" />
          </mxGeometry>
        </mxCell>
        <mxCell id="NlVoWU5lFs30DvHXOAMO-9" value="" style="rhombus;whiteSpace=wrap;html=1;" parent="EJryjW5xoQ4JVEAHy3Wa-2" vertex="1">
          <mxGeometry x="263.5" y="102" width="47" height="47" as="geometry" />
        </mxCell>
        <mxCell id="NlVoWU5lFs30DvHXOAMO-16" style="edgeStyle=orthogonalEdgeStyle;rounded=0;orthogonalLoop=1;jettySize=auto;html=1;exitX=0.565;exitY=0.033;exitDx=0;exitDy=0;exitPerimeter=0;" parent="EJryjW5xoQ4JVEAHy3Wa-2" source="NlVoWU5lFs30DvHXOAMO-14" edge="1">
          <mxGeometry relative="1" as="geometry">
            <mxPoint x="290" y="70" as="targetPoint" />
            <Array as="points">
              <mxPoint x="87" y="70" />
            </Array>
          </mxGeometry>
        </mxCell>
        <mxCell id="NlVoWU5lFs30DvHXOAMO-14" value="Enable Location" style="rounded=1;whiteSpace=wrap;html=1;shadow=0;comic=0;labelBackgroundColor=none;strokeWidth=1;fontFamily=Verdana;fontSize=16;align=center;arcSize=50;" parent="EJryjW5xoQ4JVEAHy3Wa-2" vertex="1">
          <mxGeometry x="5" y="110" width="145" height="31" as="geometry" />
        </mxCell>
        <mxCell id="NlVoWU5lFs30DvHXOAMO-29" value="" style="edgeStyle=orthogonalEdgeStyle;rounded=0;orthogonalLoop=1;jettySize=auto;html=1;" parent="EJryjW5xoQ4JVEAHy3Wa-2" source="NlVoWU5lFs30DvHXOAMO-19" target="NlVoWU5lFs30DvHXOAMO-28" edge="1">
          <mxGeometry relative="1" as="geometry">
            <Array as="points">
              <mxPoint x="140" y="300" />
              <mxPoint x="140" y="300" />
            </Array>
          </mxGeometry>
        </mxCell>
        <mxCell id="NlVoWU5lFs30DvHXOAMO-19" value="Display Available Lots on map" style="rounded=1;whiteSpace=wrap;html=1;shadow=0;comic=0;labelBackgroundColor=none;strokeWidth=1;fontFamily=Verdana;fontSize=16;align=center;arcSize=50;" parent="EJryjW5xoQ4JVEAHy3Wa-2" vertex="1">
          <mxGeometry x="57.5" y="250" width="192.5" height="50" as="geometry" />
        </mxCell>
        <mxCell id="NlVoWU5lFs30DvHXOAMO-31" value="" style="edgeStyle=orthogonalEdgeStyle;rounded=0;orthogonalLoop=1;jettySize=auto;html=1;" parent="EJryjW5xoQ4JVEAHy3Wa-2" source="NlVoWU5lFs30DvHXOAMO-28" target="NlVoWU5lFs30DvHXOAMO-30" edge="1">
          <mxGeometry relative="1" as="geometry" />
        </mxCell>
        <mxCell id="NlVoWU5lFs30DvHXOAMO-28" value="Select Parking Lot" style="rounded=1;whiteSpace=wrap;html=1;shadow=0;comic=0;labelBackgroundColor=none;strokeWidth=1;fontFamily=Verdana;fontSize=16;align=center;arcSize=50;" parent="EJryjW5xoQ4JVEAHy3Wa-2" vertex="1">
          <mxGeometry x="57.5" y="325" width="162.5" height="40" as="geometry" />
        </mxCell>
        <mxCell id="NlVoWU5lFs30DvHXOAMO-34" value="" style="rounded=0;orthogonalLoop=1;jettySize=auto;html=1;" parent="EJryjW5xoQ4JVEAHy3Wa-2" source="NlVoWU5lFs30DvHXOAMO-30" target="NlVoWU5lFs30DvHXOAMO-33" edge="1">
          <mxGeometry relative="1" as="geometry" />
        </mxCell>
        <mxCell id="NlVoWU5lFs30DvHXOAMO-30" value="Enter RSVP details" style="rounded=1;whiteSpace=wrap;html=1;shadow=0;comic=0;labelBackgroundColor=none;strokeWidth=1;fontFamily=Verdana;fontSize=16;align=center;arcSize=50;" parent="EJryjW5xoQ4JVEAHy3Wa-2" vertex="1">
          <mxGeometry x="60" y="386" width="160" height="34" as="geometry" />
        </mxCell>
        <mxCell id="NlVoWU5lFs30DvHXOAMO-33" value="Submit RSVP" style="rounded=1;whiteSpace=wrap;html=1;shadow=0;comic=0;labelBackgroundColor=none;strokeWidth=1;fontFamily=Verdana;fontSize=16;align=center;arcSize=50;" parent="EJryjW5xoQ4JVEAHy3Wa-2" vertex="1">
          <mxGeometry x="67.5" y="453" width="142.5" height="37" as="geometry" />
        </mxCell>
        <mxCell id="NlVoWU5lFs30DvHXOAMO-45" value="" style="edgeStyle=orthogonalEdgeStyle;rounded=0;orthogonalLoop=1;jettySize=auto;html=1;" parent="EJryjW5xoQ4JVEAHy3Wa-2" source="NlVoWU5lFs30DvHXOAMO-38" target="NlVoWU5lFs30DvHXOAMO-43" edge="1">
          <mxGeometry relative="1" as="geometry" />
        </mxCell>
        <mxCell id="NlVoWU5lFs30DvHXOAMO-38" value="Notify User of status" style="rounded=1;whiteSpace=wrap;html=1;shadow=0;comic=0;labelBackgroundColor=none;strokeWidth=1;fontFamily=Verdana;fontSize=16;align=center;arcSize=50;" parent="EJryjW5xoQ4JVEAHy3Wa-2" vertex="1">
          <mxGeometry x="60" y="505" width="150" height="45" as="geometry" />
        </mxCell>
        <mxCell id="NlVoWU5lFs30DvHXOAMO-48" style="edgeStyle=orthogonalEdgeStyle;rounded=0;orthogonalLoop=1;jettySize=auto;html=1;exitX=0;exitY=0.5;exitDx=0;exitDy=0;" parent="EJryjW5xoQ4JVEAHy3Wa-2" source="NlVoWU5lFs30DvHXOAMO-43" edge="1">
          <mxGeometry relative="1" as="geometry">
            <mxPoint x="109" y="574.5" as="sourcePoint" />
            <Array as="points">
              <mxPoint x="30" y="614" />
              <mxPoint x="30" y="403" />
            </Array>
            <mxPoint x="60" y="403" as="targetPoint" />
          </mxGeometry>
        </mxCell>
        <mxCell id="NlVoWU5lFs30DvHXOAMO-49" value="&lt;font style=&quot;font-size: 13px;&quot;&gt;Failure&lt;/font&gt;" style="edgeLabel;html=1;align=center;verticalAlign=middle;resizable=0;points=[];" parent="NlVoWU5lFs30DvHXOAMO-48" vertex="1" connectable="0">
          <mxGeometry x="-0.6389" y="2" relative="1" as="geometry">
            <mxPoint x="10" y="-3" as="offset" />
          </mxGeometry>
        </mxCell>
        <mxCell id="NlVoWU5lFs30DvHXOAMO-43" value="" style="rhombus;whiteSpace=wrap;html=1;" parent="EJryjW5xoQ4JVEAHy3Wa-2" vertex="1">
          <mxGeometry x="111.5" y="590" width="47" height="47" as="geometry" />
        </mxCell>
        <mxCell id="YlXK3qm7UFQLm0PrbSQl-22" value="" style="edgeStyle=orthogonalEdgeStyle;rounded=0;orthogonalLoop=1;jettySize=auto;html=1;entryX=0.25;entryY=0;entryDx=0;entryDy=0;" parent="EJryjW5xoQ4JVEAHy3Wa-2" source="YlXK3qm7UFQLm0PrbSQl-5" target="YlXK3qm7UFQLm0PrbSQl-19" edge="1">
          <mxGeometry relative="1" as="geometry" />
        </mxCell>
        <mxCell id="YlXK3qm7UFQLm0PrbSQl-5" value="Display Counter" style="rounded=1;whiteSpace=wrap;html=1;shadow=0;comic=0;labelBackgroundColor=none;strokeWidth=1;fontFamily=Verdana;fontSize=16;align=center;arcSize=50;" parent="EJryjW5xoQ4JVEAHy3Wa-2" vertex="1">
          <mxGeometry x="161.5" y="683" width="148.5" height="37" as="geometry" />
        </mxCell>
        <mxCell id="YlXK3qm7UFQLm0PrbSQl-21" value="" style="edgeStyle=orthogonalEdgeStyle;rounded=0;orthogonalLoop=1;jettySize=auto;html=1;entryX=0.837;entryY=0;entryDx=0;entryDy=0;entryPerimeter=0;" parent="EJryjW5xoQ4JVEAHy3Wa-2" source="YlXK3qm7UFQLm0PrbSQl-17" target="YlXK3qm7UFQLm0PrbSQl-19" edge="1">
          <mxGeometry relative="1" as="geometry" />
        </mxCell>
        <mxCell id="YlXK3qm7UFQLm0PrbSQl-17" value="Notify User" style="rounded=1;whiteSpace=wrap;html=1;shadow=0;comic=0;labelBackgroundColor=none;strokeWidth=1;fontFamily=Verdana;fontSize=16;align=center;arcSize=50;" parent="EJryjW5xoQ4JVEAHy3Wa-2" vertex="1">
          <mxGeometry x="161.5" y="740" width="148.5" height="31" as="geometry" />
        </mxCell>
        <mxCell id="YlXK3qm7UFQLm0PrbSQl-25" value="" style="edgeStyle=orthogonalEdgeStyle;rounded=0;orthogonalLoop=1;jettySize=auto;html=1;" parent="EJryjW5xoQ4JVEAHy3Wa-2" source="YlXK3qm7UFQLm0PrbSQl-19" target="EJryjW5xoQ4JVEAHy3Wa-29" edge="1">
          <mxGeometry relative="1" as="geometry" />
        </mxCell>
        <mxCell id="YlXK3qm7UFQLm0PrbSQl-19" value="" style="whiteSpace=wrap;html=1;rounded=0;shadow=0;comic=0;labelBackgroundColor=none;strokeWidth=1;fillColor=#000000;fontFamily=Verdana;fontSize=12;align=center;rotation=90;" parent="EJryjW5xoQ4JVEAHy3Wa-2" vertex="1">
          <mxGeometry x="64" y="720" width="92" height="10" as="geometry" />
        </mxCell>
        <mxCell id="EJryjW5xoQ4JVEAHy3Wa-78" style="edgeStyle=orthogonalEdgeStyle;rounded=0;orthogonalLoop=1;jettySize=auto;html=1;entryX=0.5;entryY=0;entryDx=0;entryDy=0;exitX=0.5;exitY=1;exitDx=0;exitDy=0;" parent="EJryjW5xoQ4JVEAHy3Wa-1" edge="1">
          <mxGeometry relative="1" as="geometry">
            <mxPoint x="56" y="617" as="sourcePoint" />
            <Array as="points">
              <mxPoint x="56" y="690" />
              <mxPoint x="280" y="690" />
              <mxPoint x="280" y="240" />
              <mxPoint x="390" y="240" />
              <mxPoint x="390" y="90" />
              <mxPoint x="1030" y="90" />
            </Array>
          </mxGeometry>
        </mxCell>
        <mxCell id="NlVoWU5lFs30DvHXOAMO-18" style="edgeStyle=orthogonalEdgeStyle;rounded=0;orthogonalLoop=1;jettySize=auto;html=1;entryX=0.5;entryY=0;entryDx=0;entryDy=0;exitX=0.5;exitY=1;exitDx=0;exitDy=0;" parent="EJryjW5xoQ4JVEAHy3Wa-1" source="EJryjW5xoQ4JVEAHy3Wa-16" target="NlVoWU5lFs30DvHXOAMO-3" edge="1">
          <mxGeometry relative="1" as="geometry">
            <Array as="points">
              <mxPoint x="68" y="240" />
              <mxPoint x="320" y="240" />
              <mxPoint x="320" y="68" />
              <mxPoint x="531" y="68" />
            </Array>
          </mxGeometry>
        </mxCell>
        <mxCell id="NlVoWU5lFs30DvHXOAMO-20" style="edgeStyle=orthogonalEdgeStyle;rounded=0;orthogonalLoop=1;jettySize=auto;html=1;entryX=1;entryY=0.5;entryDx=0;entryDy=0;exitX=0;exitY=0.5;exitDx=0;exitDy=0;" parent="EJryjW5xoQ4JVEAHy3Wa-1" source="NlVoWU5lFs30DvHXOAMO-7" target="NlVoWU5lFs30DvHXOAMO-19" edge="1">
          <mxGeometry relative="1" as="geometry">
            <Array as="points">
              <mxPoint x="350" y="213" />
              <mxPoint x="350" y="295" />
            </Array>
          </mxGeometry>
        </mxCell>
        <mxCell id="NlVoWU5lFs30DvHXOAMO-26" value="&lt;font style=&quot;font-size: 13px;&quot;&gt;Found&lt;/font&gt;" style="edgeLabel;html=1;align=center;verticalAlign=middle;resizable=0;points=[];" parent="NlVoWU5lFs30DvHXOAMO-20" vertex="1" connectable="0">
          <mxGeometry x="-0.3978" y="-1" relative="1" as="geometry">
            <mxPoint x="25" y="1" as="offset" />
          </mxGeometry>
        </mxCell>
        <mxCell id="NlVoWU5lFs30DvHXOAMO-40" style="edgeStyle=orthogonalEdgeStyle;rounded=0;orthogonalLoop=1;jettySize=auto;html=1;exitX=0.328;exitY=1.033;exitDx=0;exitDy=0;exitPerimeter=0;entryX=1;entryY=0.5;entryDx=0;entryDy=0;" parent="EJryjW5xoQ4JVEAHy3Wa-1" source="NlVoWU5lFs30DvHXOAMO-35" target="NlVoWU5lFs30DvHXOAMO-38" edge="1">
          <mxGeometry relative="1" as="geometry">
            <mxPoint x="195" y="500" as="targetPoint" />
            <Array as="points">
              <mxPoint x="522" y="399" />
              <mxPoint x="290" y="399" />
              <mxPoint x="290" y="547" />
            </Array>
          </mxGeometry>
        </mxCell>
        <mxCell id="YlXK3qm7UFQLm0PrbSQl-2" style="edgeStyle=orthogonalEdgeStyle;rounded=0;orthogonalLoop=1;jettySize=auto;html=1;entryX=0;entryY=0.5;entryDx=0;entryDy=0;exitX=1;exitY=0.5;exitDx=0;exitDy=0;" parent="EJryjW5xoQ4JVEAHy3Wa-1" source="NlVoWU5lFs30DvHXOAMO-43" target="YlXK3qm7UFQLm0PrbSQl-1" edge="1">
          <mxGeometry relative="1" as="geometry">
            <mxPoint x="156" y="584.5" as="sourcePoint" />
            <mxPoint x="531.5" y="442" as="targetPoint" />
            <Array as="points">
              <mxPoint x="340" y="634" />
              <mxPoint x="340" y="449" />
            </Array>
          </mxGeometry>
        </mxCell>
        <mxCell id="YlXK3qm7UFQLm0PrbSQl-24" value="&lt;font style=&quot;font-size: 13px;&quot;&gt;Success&lt;/font&gt;" style="edgeLabel;html=1;align=center;verticalAlign=middle;resizable=0;points=[];" parent="YlXK3qm7UFQLm0PrbSQl-2" vertex="1" connectable="0">
          <mxGeometry x="-0.7778" y="-2" relative="1" as="geometry">
            <mxPoint x="5" y="-2" as="offset" />
          </mxGeometry>
        </mxCell>
        <mxCell id="YlXK3qm7UFQLm0PrbSQl-18" style="edgeStyle=orthogonalEdgeStyle;rounded=0;orthogonalLoop=1;jettySize=auto;html=1;" parent="EJryjW5xoQ4JVEAHy3Wa-1" source="YlXK3qm7UFQLm0PrbSQl-12" target="YlXK3qm7UFQLm0PrbSQl-17" edge="1">
          <mxGeometry relative="1" as="geometry" />
        </mxCell>
        <mxCell id="EJryjW5xoQ4JVEAHy3Wa-34" value="Mobile App" style="swimlane;html=1;startSize=20;fontSize=16;" parent="EJryjW5xoQ4JVEAHy3Wa-1" vertex="1">
          <mxGeometry x="370" y="20" width="400" height="830" as="geometry" />
        </mxCell>
        <mxCell id="NlVoWU5lFs30DvHXOAMO-24" style="rounded=0;orthogonalLoop=1;jettySize=auto;html=1;entryX=0;entryY=0.25;entryDx=0;entryDy=0;startArrow=none;startFill=0;endArrow=none;endFill=0;dashed=1;" parent="EJryjW5xoQ4JVEAHy3Wa-34" source="NlVoWU5lFs30DvHXOAMO-3" target="NlVoWU5lFs30DvHXOAMO-5" edge="1">
          <mxGeometry relative="1" as="geometry" />
        </mxCell>
        <mxCell id="NlVoWU5lFs30DvHXOAMO-51" value="" style="edgeStyle=orthogonalEdgeStyle;rounded=0;orthogonalLoop=1;jettySize=auto;html=1;" parent="EJryjW5xoQ4JVEAHy3Wa-34" source="NlVoWU5lFs30DvHXOAMO-3" target="NlVoWU5lFs30DvHXOAMO-7" edge="1">
          <mxGeometry relative="1" as="geometry" />
        </mxCell>
        <mxCell id="NlVoWU5lFs30DvHXOAMO-3" value="Search Available Parking Lot" style="rounded=1;whiteSpace=wrap;html=1;shadow=0;comic=0;labelBackgroundColor=none;strokeWidth=1;fontFamily=Verdana;fontSize=16;align=center;arcSize=50;" parent="EJryjW5xoQ4JVEAHy3Wa-34" vertex="1">
          <mxGeometry x="98.5" y="70" width="161.5" height="50" as="geometry" />
        </mxCell>
        <mxCell id="NlVoWU5lFs30DvHXOAMO-5" value="Lot Occupancy" style="rounded=0;whiteSpace=wrap;html=1;shadow=0;comic=0;labelBackgroundColor=none;strokeWidth=1;fontFamily=Verdana;fontSize=16;align=center;arcSize=50;" parent="EJryjW5xoQ4JVEAHy3Wa-34" vertex="1">
          <mxGeometry x="10" y="130" width="111" height="40" as="geometry" />
        </mxCell>
        <mxCell id="NlVoWU5lFs30DvHXOAMO-23" value="" style="edgeStyle=orthogonalEdgeStyle;rounded=0;orthogonalLoop=1;jettySize=auto;html=1;" parent="EJryjW5xoQ4JVEAHy3Wa-34" source="NlVoWU5lFs30DvHXOAMO-7" target="NlVoWU5lFs30DvHXOAMO-21" edge="1">
          <mxGeometry relative="1" as="geometry" />
        </mxCell>
        <mxCell id="NlVoWU5lFs30DvHXOAMO-27" value="&lt;font style=&quot;font-size: 13px;&quot;&gt;Further Search&lt;/font&gt;" style="edgeLabel;html=1;align=center;verticalAlign=middle;resizable=0;points=[];" parent="NlVoWU5lFs30DvHXOAMO-23" vertex="1" connectable="0">
          <mxGeometry x="-0.3488" y="-1" relative="1" as="geometry">
            <mxPoint x="1" as="offset" />
          </mxGeometry>
        </mxCell>
        <mxCell id="NlVoWU5lFs30DvHXOAMO-7" value="" style="rhombus;whiteSpace=wrap;html=1;" parent="EJryjW5xoQ4JVEAHy3Wa-34" vertex="1">
          <mxGeometry x="155.75" y="170" width="47" height="47" as="geometry" />
        </mxCell>
        <mxCell id="NlVoWU5lFs30DvHXOAMO-25" style="edgeStyle=orthogonalEdgeStyle;rounded=0;orthogonalLoop=1;jettySize=auto;html=1;entryX=1;entryY=0.5;entryDx=0;entryDy=0;exitX=1;exitY=0.5;exitDx=0;exitDy=0;" parent="EJryjW5xoQ4JVEAHy3Wa-34" source="NlVoWU5lFs30DvHXOAMO-21" target="NlVoWU5lFs30DvHXOAMO-3" edge="1">
          <mxGeometry relative="1" as="geometry">
            <Array as="points">
              <mxPoint x="320" y="270" />
              <mxPoint x="320" y="95" />
            </Array>
          </mxGeometry>
        </mxCell>
        <mxCell id="NlVoWU5lFs30DvHXOAMO-21" value="Enter destination" style="rounded=1;whiteSpace=wrap;html=1;shadow=0;comic=0;labelBackgroundColor=none;strokeWidth=1;fontFamily=Verdana;fontSize=16;align=center;arcSize=50;" parent="EJryjW5xoQ4JVEAHy3Wa-34" vertex="1">
          <mxGeometry x="104.25" y="255" width="150" height="45" as="geometry" />
        </mxCell>
        <mxCell id="NlVoWU5lFs30DvHXOAMO-37" style="rounded=0;orthogonalLoop=1;jettySize=auto;html=1;entryX=0.5;entryY=0;entryDx=0;entryDy=0;dashed=1;endArrow=none;endFill=0;" parent="EJryjW5xoQ4JVEAHy3Wa-34" source="NlVoWU5lFs30DvHXOAMO-35" target="NlVoWU5lFs30DvHXOAMO-36" edge="1">
          <mxGeometry relative="1" as="geometry" />
        </mxCell>
        <mxCell id="NlVoWU5lFs30DvHXOAMO-35" value="Create RSVP collection" style="rounded=1;whiteSpace=wrap;html=1;shadow=0;comic=0;labelBackgroundColor=none;strokeWidth=1;fontFamily=Verdana;fontSize=16;align=center;arcSize=50;" parent="EJryjW5xoQ4JVEAHy3Wa-34" vertex="1">
          <mxGeometry x="106.5" y="312" width="139" height="48" as="geometry" />
        </mxCell>
        <mxCell id="NlVoWU5lFs30DvHXOAMO-36" value="Reservation" style="rounded=0;whiteSpace=wrap;html=1;shadow=0;comic=0;labelBackgroundColor=none;strokeWidth=1;fontFamily=Verdana;fontSize=16;align=center;arcSize=50;" parent="EJryjW5xoQ4JVEAHy3Wa-34" vertex="1">
          <mxGeometry x="260" y="400" width="115" height="30" as="geometry" />
        </mxCell>
        <mxCell id="YlXK3qm7UFQLm0PrbSQl-1" value="Start Countdoown" style="rounded=1;whiteSpace=wrap;html=1;shadow=0;comic=0;labelBackgroundColor=none;strokeWidth=1;fontFamily=Verdana;fontSize=16;align=center;arcSize=50;" parent="EJryjW5xoQ4JVEAHy3Wa-34" vertex="1">
          <mxGeometry x="80" y="404" width="144" height="49" as="geometry" />
        </mxCell>
        <mxCell id="YlXK3qm7UFQLm0PrbSQl-3" value="10 minutes for driver to checkin otherwise rsvp cancels" style="shape=note;whiteSpace=wrap;html=1;rounded=0;shadow=0;comic=0;labelBackgroundColor=none;strokeWidth=1;fontFamily=Verdana;fontSize=16;align=center;size=20;" parent="EJryjW5xoQ4JVEAHy3Wa-34" vertex="1">
          <mxGeometry x="201" y="485" width="189" height="85" as="geometry" />
        </mxCell>
        <mxCell id="YlXK3qm7UFQLm0PrbSQl-4" style="rounded=0;orthogonalLoop=1;jettySize=auto;html=1;entryX=0;entryY=0;entryDx=47.5;entryDy=0;entryPerimeter=0;endArrow=none;endFill=0;dashed=1;" parent="EJryjW5xoQ4JVEAHy3Wa-34" source="YlXK3qm7UFQLm0PrbSQl-1" target="YlXK3qm7UFQLm0PrbSQl-3" edge="1">
          <mxGeometry relative="1" as="geometry" />
        </mxCell>
        <mxCell id="YlXK3qm7UFQLm0PrbSQl-11" style="edgeStyle=orthogonalEdgeStyle;rounded=0;orthogonalLoop=1;jettySize=auto;html=1;entryX=0.5;entryY=0;entryDx=0;entryDy=0;exitX=0.75;exitY=1;exitDx=0;exitDy=0;" parent="EJryjW5xoQ4JVEAHy3Wa-34" source="YlXK3qm7UFQLm0PrbSQl-7" target="YlXK3qm7UFQLm0PrbSQl-10" edge="1">
          <mxGeometry relative="1" as="geometry" />
        </mxCell>
        <mxCell id="YlXK3qm7UFQLm0PrbSQl-7" value="" style="whiteSpace=wrap;html=1;rounded=0;shadow=0;comic=0;labelBackgroundColor=none;strokeWidth=1;fillColor=#000000;fontFamily=Verdana;fontSize=12;align=center;rotation=0;" parent="EJryjW5xoQ4JVEAHy3Wa-34" vertex="1">
          <mxGeometry x="98.5" y="590" width="147" height="10" as="geometry" />
        </mxCell>
        <mxCell id="YlXK3qm7UFQLm0PrbSQl-9" style="edgeStyle=orthogonalEdgeStyle;rounded=0;orthogonalLoop=1;jettySize=auto;html=1;" parent="EJryjW5xoQ4JVEAHy3Wa-34" source="YlXK3qm7UFQLm0PrbSQl-1" target="YlXK3qm7UFQLm0PrbSQl-7" edge="1">
          <mxGeometry relative="1" as="geometry">
            <Array as="points">
              <mxPoint x="152" y="559" />
              <mxPoint x="152" y="559" />
            </Array>
          </mxGeometry>
        </mxCell>
        <mxCell id="YlXK3qm7UFQLm0PrbSQl-13" value="" style="edgeStyle=orthogonalEdgeStyle;rounded=0;orthogonalLoop=1;jettySize=auto;html=1;" parent="EJryjW5xoQ4JVEAHy3Wa-34" source="YlXK3qm7UFQLm0PrbSQl-10" target="YlXK3qm7UFQLm0PrbSQl-12" edge="1">
          <mxGeometry relative="1" as="geometry" />
        </mxCell>
        <mxCell id="YlXK3qm7UFQLm0PrbSQl-14" value="&lt;font style=&quot;font-size: 13px;&quot;&gt;Counter Ends&lt;/font&gt;" style="edgeLabel;html=1;align=center;verticalAlign=middle;resizable=0;points=[];" parent="YlXK3qm7UFQLm0PrbSQl-13" vertex="1" connectable="0">
          <mxGeometry x="0.0345" y="-1" relative="1" as="geometry">
            <mxPoint y="-8" as="offset" />
          </mxGeometry>
        </mxCell>
        <mxCell id="YlXK3qm7UFQLm0PrbSQl-15" style="edgeStyle=orthogonalEdgeStyle;rounded=0;orthogonalLoop=1;jettySize=auto;html=1;entryX=1;entryY=0.75;entryDx=0;entryDy=0;exitX=1;exitY=0.5;exitDx=0;exitDy=0;" parent="EJryjW5xoQ4JVEAHy3Wa-34" source="YlXK3qm7UFQLm0PrbSQl-10" target="YlXK3qm7UFQLm0PrbSQl-7" edge="1">
          <mxGeometry relative="1" as="geometry">
            <mxPoint x="301" y="628.5" as="targetPoint" />
            <Array as="points">
              <mxPoint x="320" y="699" />
              <mxPoint x="320" y="598" />
              <mxPoint x="260" y="598" />
            </Array>
          </mxGeometry>
        </mxCell>
        <mxCell id="YlXK3qm7UFQLm0PrbSQl-16" value="&lt;font style=&quot;font-size: 13px;&quot;&gt;Continues&lt;/font&gt;" style="edgeLabel;html=1;align=center;verticalAlign=middle;resizable=0;points=[];" parent="YlXK3qm7UFQLm0PrbSQl-15" vertex="1" connectable="0">
          <mxGeometry x="-0.7349" y="4" relative="1" as="geometry">
            <mxPoint x="9" y="3" as="offset" />
          </mxGeometry>
        </mxCell>
        <mxCell id="YlXK3qm7UFQLm0PrbSQl-10" value="" style="rhombus;whiteSpace=wrap;html=1;" parent="EJryjW5xoQ4JVEAHy3Wa-34" vertex="1">
          <mxGeometry x="184.5" y="676" width="47" height="47" as="geometry" />
        </mxCell>
        <mxCell id="YlXK3qm7UFQLm0PrbSQl-12" value="Cancel RSVP" style="rounded=1;whiteSpace=wrap;html=1;shadow=0;comic=0;labelBackgroundColor=none;strokeWidth=1;fontFamily=Verdana;fontSize=16;align=center;arcSize=50;" parent="EJryjW5xoQ4JVEAHy3Wa-34" vertex="1">
          <mxGeometry x="145.5" y="780" width="125" height="30" as="geometry" />
        </mxCell>
        <mxCell id="YlXK3qm7UFQLm0PrbSQl-26" style="edgeStyle=orthogonalEdgeStyle;rounded=0;orthogonalLoop=1;jettySize=auto;html=1;exitX=0.25;exitY=1;exitDx=0;exitDy=0;entryX=1;entryY=0.5;entryDx=0;entryDy=0;" parent="EJryjW5xoQ4JVEAHy3Wa-1" source="YlXK3qm7UFQLm0PrbSQl-7" target="YlXK3qm7UFQLm0PrbSQl-5" edge="1">
          <mxGeometry relative="1" as="geometry" />
        </mxCell>
        <mxCell id="bKU2ByUIx8T1dFcf_QMc-2" style="edgeStyle=orthogonalEdgeStyle;rounded=0;orthogonalLoop=1;jettySize=auto;html=1;" edge="1" parent="EJryjW5xoQ4JVEAHy3Wa-1" source="NlVoWU5lFs30DvHXOAMO-33" target="NlVoWU5lFs30DvHXOAMO-35">
          <mxGeometry relative="1" as="geometry">
            <mxPoint x="460" y="359" as="targetPoint" />
            <Array as="points">
              <mxPoint x="260" y="492" />
              <mxPoint x="260" y="359" />
            </Array>
          </mxGeometry>
        </mxCell>
      </root>
    </mxGraphModel>
  </diagram>
  <diagram id="Gj10JdqGa0yJON0-cPjc" name="CheckIn Activity Diagram">
    <mxGraphModel dx="3585" dy="2175" grid="1" gridSize="10" guides="1" tooltips="1" connect="1" arrows="1" fold="1" page="1" pageScale="1" pageWidth="1400" pageHeight="850" math="0" shadow="0">
      <root>
        <mxCell id="0" />
        <mxCell id="1" parent="0" />
        <mxCell id="b8WZnyrwi4I29LCCVTEn-1" value="Check In Activity Diagram" style="swimlane;html=1;childLayout=stackLayout;startSize=20;rounded=0;shadow=0;comic=0;labelBackgroundColor=none;strokeWidth=1;fontFamily=Verdana;fontSize=14;align=center;" parent="1" vertex="1">
          <mxGeometry x="250" y="90" width="900" height="1110" as="geometry" />
        </mxCell>
        <mxCell id="b8WZnyrwi4I29LCCVTEn-2" value="Driver / Vehicle" style="swimlane;html=1;startSize=20;fontSize=15;" parent="b8WZnyrwi4I29LCCVTEn-1" vertex="1">
          <mxGeometry y="20" width="320" height="1090" as="geometry" />
        </mxCell>
        <mxCell id="saA55Hr_CYOuZeU3WH3S-2" value="" style="edgeStyle=orthogonalEdgeStyle;rounded=0;orthogonalLoop=1;jettySize=auto;html=1;" parent="b8WZnyrwi4I29LCCVTEn-2" source="b8WZnyrwi4I29LCCVTEn-4" target="saA55Hr_CYOuZeU3WH3S-1" edge="1">
          <mxGeometry relative="1" as="geometry" />
        </mxCell>
        <mxCell id="b8WZnyrwi4I29LCCVTEn-4" value="" style="ellipse;whiteSpace=wrap;html=1;rounded=0;shadow=0;comic=0;labelBackgroundColor=none;strokeWidth=1;fillColor=#000000;fontFamily=Verdana;fontSize=12;align=center;" parent="b8WZnyrwi4I29LCCVTEn-2" vertex="1">
          <mxGeometry x="24" y="37.5" width="40" height="40" as="geometry" />
        </mxCell>
        <mxCell id="saA55Hr_CYOuZeU3WH3S-1" value="Drives towards Parking Lot Gate" style="rounded=1;whiteSpace=wrap;html=1;shadow=0;comic=0;labelBackgroundColor=none;strokeWidth=1;fontFamily=Verdana;fontSize=15;align=center;arcSize=50;" parent="b8WZnyrwi4I29LCCVTEn-2" vertex="1">
          <mxGeometry x="127" y="35" width="153" height="45" as="geometry" />
        </mxCell>
        <mxCell id="b8WZnyrwi4I29LCCVTEn-32" style="edgeStyle=orthogonalEdgeStyle;rounded=0;orthogonalLoop=1;jettySize=auto;html=1;entryX=0.5;entryY=0;entryDx=0;entryDy=0;exitX=0.5;exitY=1;exitDx=0;exitDy=0;" parent="b8WZnyrwi4I29LCCVTEn-1" edge="1">
          <mxGeometry relative="1" as="geometry">
            <mxPoint x="56" y="617" as="sourcePoint" />
            <Array as="points">
              <mxPoint x="56" y="690" />
              <mxPoint x="280" y="690" />
              <mxPoint x="280" y="240" />
              <mxPoint x="390" y="240" />
              <mxPoint x="390" y="90" />
              <mxPoint x="1030" y="90" />
            </Array>
          </mxGeometry>
        </mxCell>
        <mxCell id="b8WZnyrwi4I29LCCVTEn-33" style="edgeStyle=orthogonalEdgeStyle;rounded=0;orthogonalLoop=1;jettySize=auto;html=1;entryX=0.5;entryY=0;entryDx=0;entryDy=0;exitX=0.5;exitY=1;exitDx=0;exitDy=0;" parent="b8WZnyrwi4I29LCCVTEn-1" edge="1">
          <mxGeometry relative="1" as="geometry">
            <Array as="points">
              <mxPoint x="68" y="240" />
              <mxPoint x="320" y="240" />
              <mxPoint x="320" y="68" />
              <mxPoint x="531" y="68" />
            </Array>
            <mxPoint x="67.5" y="220" as="sourcePoint" />
          </mxGeometry>
        </mxCell>
        <mxCell id="b8WZnyrwi4I29LCCVTEn-41" value="Gate Automation System" style="swimlane;html=1;startSize=20;fontSize=15;" parent="b8WZnyrwi4I29LCCVTEn-1" vertex="1">
          <mxGeometry x="320" y="20" width="580" height="1090" as="geometry" />
        </mxCell>
        <mxCell id="saA55Hr_CYOuZeU3WH3S-9" value="" style="edgeStyle=orthogonalEdgeStyle;rounded=0;orthogonalLoop=1;jettySize=auto;html=1;" parent="b8WZnyrwi4I29LCCVTEn-41" source="saA55Hr_CYOuZeU3WH3S-3" target="saA55Hr_CYOuZeU3WH3S-6" edge="1">
          <mxGeometry relative="1" as="geometry" />
        </mxCell>
        <mxCell id="wkWo7fPuSQBGfSVwWj5v-62" style="rounded=0;orthogonalLoop=1;jettySize=auto;html=1;exitX=0.929;exitY=0.1;exitDx=0;exitDy=0;exitPerimeter=0;dashed=1;endArrow=none;endFill=0;" parent="b8WZnyrwi4I29LCCVTEn-41" source="saA55Hr_CYOuZeU3WH3S-3" target="wkWo7fPuSQBGfSVwWj5v-61" edge="1">
          <mxGeometry relative="1" as="geometry" />
        </mxCell>
        <mxCell id="saA55Hr_CYOuZeU3WH3S-3" value="get distance from HC-SR04 sensor1" style="rounded=1;whiteSpace=wrap;html=1;shadow=0;comic=0;labelBackgroundColor=none;strokeWidth=1;fontFamily=Verdana;fontSize=15;align=center;arcSize=50;" parent="b8WZnyrwi4I29LCCVTEn-41" vertex="1">
          <mxGeometry x="100" y="30" width="162" height="50" as="geometry" />
        </mxCell>
        <mxCell id="saA55Hr_CYOuZeU3WH3S-11" style="edgeStyle=orthogonalEdgeStyle;rounded=0;orthogonalLoop=1;jettySize=auto;html=1;entryX=1;entryY=0.5;entryDx=0;entryDy=0;exitX=1;exitY=0.5;exitDx=0;exitDy=0;" parent="b8WZnyrwi4I29LCCVTEn-41" source="saA55Hr_CYOuZeU3WH3S-6" target="saA55Hr_CYOuZeU3WH3S-3" edge="1">
          <mxGeometry relative="1" as="geometry">
            <Array as="points">
              <mxPoint x="304" y="116" />
              <mxPoint x="304" y="55" />
            </Array>
          </mxGeometry>
        </mxCell>
        <mxCell id="saA55Hr_CYOuZeU3WH3S-12" value="False" style="edgeLabel;html=1;align=center;verticalAlign=middle;resizable=0;points=[];" parent="saA55Hr_CYOuZeU3WH3S-11" vertex="1" connectable="0">
          <mxGeometry x="-0.6864" y="3" relative="1" as="geometry">
            <mxPoint x="1" y="3" as="offset" />
          </mxGeometry>
        </mxCell>
        <mxCell id="saA55Hr_CYOuZeU3WH3S-14" value="" style="edgeStyle=orthogonalEdgeStyle;rounded=0;orthogonalLoop=1;jettySize=auto;html=1;" parent="b8WZnyrwi4I29LCCVTEn-41" source="saA55Hr_CYOuZeU3WH3S-6" target="saA55Hr_CYOuZeU3WH3S-8" edge="1">
          <mxGeometry relative="1" as="geometry" />
        </mxCell>
        <mxCell id="saA55Hr_CYOuZeU3WH3S-15" value="True" style="edgeLabel;html=1;align=center;verticalAlign=middle;resizable=0;points=[];" parent="saA55Hr_CYOuZeU3WH3S-14" vertex="1" connectable="0">
          <mxGeometry x="-0.4667" y="-1" relative="1" as="geometry">
            <mxPoint as="offset" />
          </mxGeometry>
        </mxCell>
        <mxCell id="saA55Hr_CYOuZeU3WH3S-6" value="d &amp;lt; 50" style="rhombus;whiteSpace=wrap;html=1;fontSize=14;" parent="b8WZnyrwi4I29LCCVTEn-41" vertex="1">
          <mxGeometry x="143" y="92" width="75.5" height="47" as="geometry" />
        </mxCell>
        <mxCell id="saA55Hr_CYOuZeU3WH3S-17" value="" style="edgeStyle=orthogonalEdgeStyle;rounded=0;orthogonalLoop=1;jettySize=auto;html=1;" parent="b8WZnyrwi4I29LCCVTEn-41" source="saA55Hr_CYOuZeU3WH3S-8" target="saA55Hr_CYOuZeU3WH3S-16" edge="1">
          <mxGeometry relative="1" as="geometry" />
        </mxCell>
        <mxCell id="saA55Hr_CYOuZeU3WH3S-8" value="Activate Camera" style="rounded=1;whiteSpace=wrap;html=1;shadow=0;comic=0;labelBackgroundColor=none;strokeWidth=1;fontFamily=Verdana;fontSize=14;align=center;arcSize=50;" parent="b8WZnyrwi4I29LCCVTEn-41" vertex="1">
          <mxGeometry x="141" y="176" width="140" height="40" as="geometry" />
        </mxCell>
        <mxCell id="saA55Hr_CYOuZeU3WH3S-19" value="" style="edgeStyle=orthogonalEdgeStyle;rounded=0;orthogonalLoop=1;jettySize=auto;html=1;" parent="b8WZnyrwi4I29LCCVTEn-41" source="saA55Hr_CYOuZeU3WH3S-16" target="saA55Hr_CYOuZeU3WH3S-18" edge="1">
          <mxGeometry relative="1" as="geometry" />
        </mxCell>
        <mxCell id="saA55Hr_CYOuZeU3WH3S-16" value="Capture Image" style="rounded=1;whiteSpace=wrap;html=1;shadow=0;comic=0;labelBackgroundColor=none;strokeWidth=1;fontFamily=Verdana;fontSize=14;align=center;arcSize=50;" parent="b8WZnyrwi4I29LCCVTEn-41" vertex="1">
          <mxGeometry x="141" y="237" width="140" height="40" as="geometry" />
        </mxCell>
        <mxCell id="saA55Hr_CYOuZeU3WH3S-21" value="" style="edgeStyle=orthogonalEdgeStyle;rounded=0;orthogonalLoop=1;jettySize=auto;html=1;" parent="b8WZnyrwi4I29LCCVTEn-41" source="saA55Hr_CYOuZeU3WH3S-18" target="saA55Hr_CYOuZeU3WH3S-20" edge="1">
          <mxGeometry relative="1" as="geometry" />
        </mxCell>
        <mxCell id="saA55Hr_CYOuZeU3WH3S-18" value="Store on reusable local storage" style="rounded=1;whiteSpace=wrap;html=1;shadow=0;comic=0;labelBackgroundColor=none;strokeWidth=1;fontFamily=Verdana;fontSize=14;align=center;arcSize=50;" parent="b8WZnyrwi4I29LCCVTEn-41" vertex="1">
          <mxGeometry x="141" y="301" width="140" height="40" as="geometry" />
        </mxCell>
        <mxCell id="saA55Hr_CYOuZeU3WH3S-25" value="" style="edgeStyle=orthogonalEdgeStyle;rounded=0;orthogonalLoop=1;jettySize=auto;html=1;" parent="b8WZnyrwi4I29LCCVTEn-41" source="saA55Hr_CYOuZeU3WH3S-20" edge="1">
          <mxGeometry relative="1" as="geometry">
            <mxPoint x="211" y="424" as="targetPoint" />
          </mxGeometry>
        </mxCell>
        <mxCell id="saA55Hr_CYOuZeU3WH3S-20" value="Extract plate number image" style="rounded=1;whiteSpace=wrap;html=1;shadow=0;comic=0;labelBackgroundColor=none;strokeWidth=1;fontFamily=Verdana;fontSize=14;align=center;arcSize=50;" parent="b8WZnyrwi4I29LCCVTEn-41" vertex="1">
          <mxGeometry x="141" y="363" width="140" height="40" as="geometry" />
        </mxCell>
        <mxCell id="saA55Hr_CYOuZeU3WH3S-27" value="" style="edgeStyle=orthogonalEdgeStyle;rounded=0;orthogonalLoop=1;jettySize=auto;html=1;exitX=0;exitY=0.5;exitDx=0;exitDy=0;" parent="b8WZnyrwi4I29LCCVTEn-41" source="saA55Hr_CYOuZeU3WH3S-24" target="saA55Hr_CYOuZeU3WH3S-26" edge="1">
          <mxGeometry relative="1" as="geometry" />
        </mxCell>
        <mxCell id="saA55Hr_CYOuZeU3WH3S-28" value="&lt;font style=&quot;font-size: 13px;&quot;&gt;Success&lt;/font&gt;" style="edgeLabel;html=1;align=center;verticalAlign=middle;resizable=0;points=[];" parent="saA55Hr_CYOuZeU3WH3S-27" vertex="1" connectable="0">
          <mxGeometry x="-0.25" y="1" relative="1" as="geometry">
            <mxPoint x="-23" y="14" as="offset" />
          </mxGeometry>
        </mxCell>
        <mxCell id="saA55Hr_CYOuZeU3WH3S-33" value="" style="edgeStyle=orthogonalEdgeStyle;rounded=0;orthogonalLoop=1;jettySize=auto;html=1;entryX=1;entryY=0.25;entryDx=0;entryDy=0;exitX=0.926;exitY=0.468;exitDx=0;exitDy=0;exitPerimeter=0;" parent="b8WZnyrwi4I29LCCVTEn-41" source="saA55Hr_CYOuZeU3WH3S-24" target="saA55Hr_CYOuZeU3WH3S-8" edge="1">
          <mxGeometry relative="1" as="geometry">
            <mxPoint x="323.94000000000005" y="475" as="targetPoint" />
            <Array as="points">
              <mxPoint x="304" y="446" />
              <mxPoint x="304" y="186" />
            </Array>
          </mxGeometry>
        </mxCell>
        <mxCell id="saA55Hr_CYOuZeU3WH3S-34" value="&lt;font style=&quot;font-size: 13px;&quot;&gt;Fails&lt;/font&gt;" style="edgeLabel;html=1;align=center;verticalAlign=middle;resizable=0;points=[];" parent="saA55Hr_CYOuZeU3WH3S-33" vertex="1" connectable="0">
          <mxGeometry x="-0.4545" y="1" relative="1" as="geometry">
            <mxPoint x="-29" y="20" as="offset" />
          </mxGeometry>
        </mxCell>
        <mxCell id="saA55Hr_CYOuZeU3WH3S-24" value="" style="rhombus;whiteSpace=wrap;html=1;" parent="b8WZnyrwi4I29LCCVTEn-41" vertex="1">
          <mxGeometry x="188" y="420" width="47" height="47" as="geometry" />
        </mxCell>
        <mxCell id="saA55Hr_CYOuZeU3WH3S-30" value="" style="edgeStyle=orthogonalEdgeStyle;rounded=0;orthogonalLoop=1;jettySize=auto;html=1;" parent="b8WZnyrwi4I29LCCVTEn-41" source="saA55Hr_CYOuZeU3WH3S-26" target="saA55Hr_CYOuZeU3WH3S-29" edge="1">
          <mxGeometry relative="1" as="geometry">
            <Array as="points">
              <mxPoint x="118" y="540" />
              <mxPoint x="64" y="540" />
            </Array>
          </mxGeometry>
        </mxCell>
        <mxCell id="saA55Hr_CYOuZeU3WH3S-26" value="Query THE RSVP" style="rounded=1;whiteSpace=wrap;html=1;shadow=0;comic=0;labelBackgroundColor=none;strokeWidth=1;fontFamily=Verdana;fontSize=14;align=center;arcSize=50;" parent="b8WZnyrwi4I29LCCVTEn-41" vertex="1">
          <mxGeometry x="48" y="489" width="140" height="40" as="geometry" />
        </mxCell>
        <mxCell id="saA55Hr_CYOuZeU3WH3S-41" style="edgeStyle=orthogonalEdgeStyle;rounded=0;orthogonalLoop=1;jettySize=auto;html=1;exitX=1;exitY=0.5;exitDx=0;exitDy=0;" parent="b8WZnyrwi4I29LCCVTEn-41" source="saA55Hr_CYOuZeU3WH3S-29" target="saA55Hr_CYOuZeU3WH3S-40" edge="1">
          <mxGeometry relative="1" as="geometry" />
        </mxCell>
        <mxCell id="saA55Hr_CYOuZeU3WH3S-42" value="&lt;font style=&quot;font-size: 13px;&quot;&gt;No RSVP&lt;/font&gt;" style="edgeLabel;html=1;align=center;verticalAlign=middle;resizable=0;points=[];" parent="saA55Hr_CYOuZeU3WH3S-41" vertex="1" connectable="0">
          <mxGeometry x="-0.5315" y="2" relative="1" as="geometry">
            <mxPoint x="23" y="2" as="offset" />
          </mxGeometry>
        </mxCell>
        <mxCell id="saA55Hr_CYOuZeU3WH3S-50" value="" style="edgeStyle=orthogonalEdgeStyle;rounded=0;orthogonalLoop=1;jettySize=auto;html=1;" parent="b8WZnyrwi4I29LCCVTEn-41" source="saA55Hr_CYOuZeU3WH3S-29" target="saA55Hr_CYOuZeU3WH3S-47" edge="1">
          <mxGeometry relative="1" as="geometry">
            <Array as="points">
              <mxPoint x="64" y="620" />
              <mxPoint x="192" y="620" />
            </Array>
          </mxGeometry>
        </mxCell>
        <mxCell id="saA55Hr_CYOuZeU3WH3S-51" value="&lt;font style=&quot;font-size: 13px;&quot;&gt;Found&lt;/font&gt;" style="edgeLabel;html=1;align=center;verticalAlign=middle;resizable=0;points=[];" parent="saA55Hr_CYOuZeU3WH3S-50" vertex="1" connectable="0">
          <mxGeometry x="-0.1" relative="1" as="geometry">
            <mxPoint as="offset" />
          </mxGeometry>
        </mxCell>
        <mxCell id="saA55Hr_CYOuZeU3WH3S-29" value="" style="rhombus;whiteSpace=wrap;html=1;" parent="b8WZnyrwi4I29LCCVTEn-41" vertex="1">
          <mxGeometry x="40" y="556.5" width="47" height="47" as="geometry" />
        </mxCell>
        <mxCell id="saA55Hr_CYOuZeU3WH3S-40" value="Create CheckIn Log" style="rounded=1;whiteSpace=wrap;html=1;shadow=0;comic=0;labelBackgroundColor=none;strokeWidth=1;fontFamily=Verdana;fontSize=14;align=center;arcSize=50;" parent="b8WZnyrwi4I29LCCVTEn-41" vertex="1">
          <mxGeometry x="219" y="563.5" width="140" height="40" as="geometry" />
        </mxCell>
        <mxCell id="saA55Hr_CYOuZeU3WH3S-43" value="For guest users" style="shape=note;whiteSpace=wrap;html=1;rounded=0;shadow=0;comic=0;labelBackgroundColor=none;strokeWidth=1;fontFamily=Verdana;fontSize=14;align=center;size=20;" parent="b8WZnyrwi4I29LCCVTEn-41" vertex="1">
          <mxGeometry x="312" y="460" width="85" height="42" as="geometry" />
        </mxCell>
        <mxCell id="saA55Hr_CYOuZeU3WH3S-44" style="rounded=0;orthogonalLoop=1;jettySize=auto;html=1;entryX=0.5;entryY=1;entryDx=0;entryDy=0;entryPerimeter=0;dashed=1;endArrow=none;endFill=0;" parent="b8WZnyrwi4I29LCCVTEn-41" source="saA55Hr_CYOuZeU3WH3S-40" target="saA55Hr_CYOuZeU3WH3S-43" edge="1">
          <mxGeometry relative="1" as="geometry" />
        </mxCell>
        <mxCell id="saA55Hr_CYOuZeU3WH3S-45" value="get the RSVP of the driver using the plate number." style="shape=note;whiteSpace=wrap;html=1;rounded=0;shadow=0;comic=0;labelBackgroundColor=none;strokeWidth=1;fontFamily=Verdana;fontSize=14;align=center;size=15;" parent="b8WZnyrwi4I29LCCVTEn-41" vertex="1">
          <mxGeometry x="12.5" y="320" width="106" height="110" as="geometry" />
        </mxCell>
        <mxCell id="saA55Hr_CYOuZeU3WH3S-46" style="rounded=0;orthogonalLoop=1;jettySize=auto;html=1;entryX=0.5;entryY=1;entryDx=0;entryDy=0;entryPerimeter=0;endArrow=none;endFill=0;dashed=1;exitX=0.114;exitY=-0.025;exitDx=0;exitDy=0;exitPerimeter=0;" parent="b8WZnyrwi4I29LCCVTEn-41" target="saA55Hr_CYOuZeU3WH3S-45" edge="1" source="saA55Hr_CYOuZeU3WH3S-26">
          <mxGeometry relative="1" as="geometry">
            <mxPoint x="54" y="510" as="sourcePoint" />
          </mxGeometry>
        </mxCell>
        <mxCell id="saA55Hr_CYOuZeU3WH3S-53" style="edgeStyle=orthogonalEdgeStyle;rounded=0;orthogonalLoop=1;jettySize=auto;html=1;entryX=0.5;entryY=0;entryDx=0;entryDy=0;exitX=0.25;exitY=1;exitDx=0;exitDy=0;" parent="b8WZnyrwi4I29LCCVTEn-41" source="saA55Hr_CYOuZeU3WH3S-47" target="saA55Hr_CYOuZeU3WH3S-48" edge="1">
          <mxGeometry relative="1" as="geometry" />
        </mxCell>
        <mxCell id="saA55Hr_CYOuZeU3WH3S-54" style="edgeStyle=orthogonalEdgeStyle;rounded=0;orthogonalLoop=1;jettySize=auto;html=1;exitX=0.759;exitY=1.7;exitDx=0;exitDy=0;exitPerimeter=0;" parent="b8WZnyrwi4I29LCCVTEn-41" source="saA55Hr_CYOuZeU3WH3S-47" target="saA55Hr_CYOuZeU3WH3S-52" edge="1">
          <mxGeometry relative="1" as="geometry">
            <Array as="points">
              <mxPoint x="230" y="670" />
              <mxPoint x="330" y="670" />
            </Array>
          </mxGeometry>
        </mxCell>
        <mxCell id="saA55Hr_CYOuZeU3WH3S-47" value="" style="whiteSpace=wrap;html=1;rounded=0;shadow=0;comic=0;labelBackgroundColor=none;strokeWidth=1;fillColor=#000000;fontFamily=Verdana;fontSize=12;align=center;rotation=0;" parent="b8WZnyrwi4I29LCCVTEn-41" vertex="1">
          <mxGeometry x="118.5" y="640" width="147" height="10" as="geometry" />
        </mxCell>
        <mxCell id="wkWo7fPuSQBGfSVwWj5v-57" style="edgeStyle=orthogonalEdgeStyle;rounded=0;orthogonalLoop=1;jettySize=auto;html=1;entryX=0.25;entryY=0;entryDx=0;entryDy=0;" parent="b8WZnyrwi4I29LCCVTEn-41" source="saA55Hr_CYOuZeU3WH3S-48" target="wkWo7fPuSQBGfSVwWj5v-3" edge="1">
          <mxGeometry relative="1" as="geometry" />
        </mxCell>
        <mxCell id="saA55Hr_CYOuZeU3WH3S-48" value="Update CheckIn Log" style="rounded=1;whiteSpace=wrap;html=1;shadow=0;comic=0;labelBackgroundColor=none;strokeWidth=1;fontFamily=Verdana;fontSize=14;align=center;arcSize=50;" parent="b8WZnyrwi4I29LCCVTEn-41" vertex="1">
          <mxGeometry x="40" y="686" width="140" height="40" as="geometry" />
        </mxCell>
        <mxCell id="wkWo7fPuSQBGfSVwWj5v-58" style="edgeStyle=orthogonalEdgeStyle;rounded=0;orthogonalLoop=1;jettySize=auto;html=1;entryX=0.75;entryY=0;entryDx=0;entryDy=0;" parent="b8WZnyrwi4I29LCCVTEn-41" source="saA55Hr_CYOuZeU3WH3S-52" target="wkWo7fPuSQBGfSVwWj5v-3" edge="1">
          <mxGeometry relative="1" as="geometry" />
        </mxCell>
        <mxCell id="saA55Hr_CYOuZeU3WH3S-52" value="Set Gate Status to True" style="rounded=1;whiteSpace=wrap;html=1;shadow=0;comic=0;labelBackgroundColor=none;strokeWidth=1;fontFamily=Verdana;fontSize=14;align=center;arcSize=50;" parent="b8WZnyrwi4I29LCCVTEn-41" vertex="1">
          <mxGeometry x="260" y="686" width="150" height="40" as="geometry" />
        </mxCell>
        <mxCell id="wkWo7fPuSQBGfSVwWj5v-53" style="edgeStyle=orthogonalEdgeStyle;rounded=0;orthogonalLoop=1;jettySize=auto;html=1;" parent="b8WZnyrwi4I29LCCVTEn-41" source="wkWo7fPuSQBGfSVwWj5v-1" target="wkWo7fPuSQBGfSVwWj5v-52" edge="1">
          <mxGeometry relative="1" as="geometry">
            <Array as="points">
              <mxPoint x="205" y="900" />
            </Array>
          </mxGeometry>
        </mxCell>
        <mxCell id="wkWo7fPuSQBGfSVwWj5v-1" value="Open Gate" style="rounded=1;whiteSpace=wrap;html=1;shadow=0;comic=0;labelBackgroundColor=none;strokeWidth=1;fontFamily=Verdana;fontSize=14;align=center;arcSize=50;" parent="b8WZnyrwi4I29LCCVTEn-41" vertex="1">
          <mxGeometry x="13.5" y="880" width="140" height="40" as="geometry" />
        </mxCell>
        <mxCell id="wkWo7fPuSQBGfSVwWj5v-6" value="" style="edgeStyle=orthogonalEdgeStyle;rounded=0;orthogonalLoop=1;jettySize=auto;html=1;" parent="b8WZnyrwi4I29LCCVTEn-41" source="wkWo7fPuSQBGfSVwWj5v-3" target="wkWo7fPuSQBGfSVwWj5v-1" edge="1">
          <mxGeometry relative="1" as="geometry">
            <Array as="points">
              <mxPoint x="215" y="790" />
              <mxPoint x="114" y="790" />
            </Array>
          </mxGeometry>
        </mxCell>
        <mxCell id="wkWo7fPuSQBGfSVwWj5v-3" value="" style="whiteSpace=wrap;html=1;rounded=0;shadow=0;comic=0;labelBackgroundColor=none;strokeWidth=1;fillColor=#000000;fontFamily=Verdana;fontSize=12;align=center;rotation=0;" parent="b8WZnyrwi4I29LCCVTEn-41" vertex="1">
          <mxGeometry x="141" y="765" width="147" height="10" as="geometry" />
        </mxCell>
        <mxCell id="wkWo7fPuSQBGfSVwWj5v-50" value="Rotate motor 180 deg" style="shape=note;whiteSpace=wrap;html=1;rounded=0;shadow=0;comic=0;labelBackgroundColor=none;strokeWidth=1;fontFamily=Verdana;fontSize=14;align=center;size=20;" parent="b8WZnyrwi4I29LCCVTEn-41" vertex="1">
          <mxGeometry x="7" y="743" width="85" height="87" as="geometry" />
        </mxCell>
        <mxCell id="wkWo7fPuSQBGfSVwWj5v-51" style="rounded=0;orthogonalLoop=1;jettySize=auto;html=1;entryX=0.5;entryY=1;entryDx=0;entryDy=0;entryPerimeter=0;startArrow=none;startFill=0;dashed=1;endArrow=none;endFill=0;" parent="b8WZnyrwi4I29LCCVTEn-41" source="wkWo7fPuSQBGfSVwWj5v-1" target="wkWo7fPuSQBGfSVwWj5v-50" edge="1">
          <mxGeometry relative="1" as="geometry" />
        </mxCell>
        <mxCell id="wkWo7fPuSQBGfSVwWj5v-59" value="" style="edgeStyle=orthogonalEdgeStyle;rounded=0;orthogonalLoop=1;jettySize=auto;html=1;entryX=0;entryY=0.5;entryDx=0;entryDy=0;" parent="b8WZnyrwi4I29LCCVTEn-41" source="wkWo7fPuSQBGfSVwWj5v-52" target="wkWo7fPuSQBGfSVwWj5v-60" edge="1">
          <mxGeometry relative="1" as="geometry">
            <mxPoint x="262" y="843" as="targetPoint" />
          </mxGeometry>
        </mxCell>
        <mxCell id="wkWo7fPuSQBGfSVwWj5v-52" value="10 secs" style="html=1;shape=mxgraph.sysml.timeEvent;strokeWidth=2;verticalLabelPosition=bottom;verticalAlignment=top;" parent="b8WZnyrwi4I29LCCVTEn-41" vertex="1">
          <mxGeometry x="187" y="823" width="35" height="40" as="geometry" />
        </mxCell>
        <mxCell id="wkWo7fPuSQBGfSVwWj5v-65" style="edgeStyle=orthogonalEdgeStyle;rounded=0;orthogonalLoop=1;jettySize=auto;html=1;entryX=0.654;entryY=1.066;entryDx=0;entryDy=0;entryPerimeter=0;dashed=1;endArrow=none;endFill=0;" parent="b8WZnyrwi4I29LCCVTEn-41" source="wkWo7fPuSQBGfSVwWj5v-60" target="wkWo7fPuSQBGfSVwWj5v-64" edge="1">
          <mxGeometry relative="1" as="geometry">
            <Array as="points">
              <mxPoint x="519" y="843" />
            </Array>
          </mxGeometry>
        </mxCell>
        <mxCell id="wkWo7fPuSQBGfSVwWj5v-67" value="" style="edgeStyle=orthogonalEdgeStyle;rounded=0;orthogonalLoop=1;jettySize=auto;html=1;" parent="b8WZnyrwi4I29LCCVTEn-41" source="wkWo7fPuSQBGfSVwWj5v-60" target="wkWo7fPuSQBGfSVwWj5v-66" edge="1">
          <mxGeometry relative="1" as="geometry" />
        </mxCell>
        <mxCell id="wkWo7fPuSQBGfSVwWj5v-60" value="get distance from HC-SR04 sensor2" style="rounded=1;whiteSpace=wrap;html=1;shadow=0;comic=0;labelBackgroundColor=none;strokeWidth=1;fontFamily=Verdana;fontSize=14;align=center;arcSize=50;" parent="b8WZnyrwi4I29LCCVTEn-41" vertex="1">
          <mxGeometry x="273" y="823" width="156" height="40" as="geometry" />
        </mxCell>
        <mxCell id="wkWo7fPuSQBGfSVwWj5v-61" value="measures the distance between the gate and the vehicle approaching" style="shape=note;whiteSpace=wrap;html=1;rounded=0;shadow=0;comic=0;labelBackgroundColor=none;strokeWidth=1;fontFamily=Verdana;fontSize=14;align=center;size=20;" parent="b8WZnyrwi4I29LCCVTEn-41" vertex="1">
          <mxGeometry x="424" y="30" width="130" height="121" as="geometry" />
        </mxCell>
        <mxCell id="wkWo7fPuSQBGfSVwWj5v-64" value="used to determin whether the vehicle has passed the gate or not." style="shape=note;whiteSpace=wrap;html=1;rounded=0;shadow=0;comic=0;labelBackgroundColor=none;strokeWidth=1;fontFamily=Verdana;fontSize=14;align=center;size=20;" parent="b8WZnyrwi4I29LCCVTEn-41" vertex="1">
          <mxGeometry x="434" y="202" width="130" height="110" as="geometry" />
        </mxCell>
        <mxCell id="wkWo7fPuSQBGfSVwWj5v-69" style="edgeStyle=orthogonalEdgeStyle;rounded=0;orthogonalLoop=1;jettySize=auto;html=1;entryX=1;entryY=0.5;entryDx=0;entryDy=0;exitX=1;exitY=0.5;exitDx=0;exitDy=0;" parent="b8WZnyrwi4I29LCCVTEn-41" source="wkWo7fPuSQBGfSVwWj5v-66" target="wkWo7fPuSQBGfSVwWj5v-60" edge="1">
          <mxGeometry relative="1" as="geometry">
            <Array as="points">
              <mxPoint x="464" y="913" />
              <mxPoint x="464" y="843" />
            </Array>
          </mxGeometry>
        </mxCell>
        <mxCell id="wkWo7fPuSQBGfSVwWj5v-70" value="&lt;font style=&quot;font-size: 13px;&quot;&gt;False&lt;/font&gt;" style="edgeLabel;html=1;align=center;verticalAlign=middle;resizable=0;points=[];" parent="wkWo7fPuSQBGfSVwWj5v-69" vertex="1" connectable="0">
          <mxGeometry x="-0.642" y="1" relative="1" as="geometry">
            <mxPoint y="1" as="offset" />
          </mxGeometry>
        </mxCell>
        <mxCell id="wkWo7fPuSQBGfSVwWj5v-72" value="" style="edgeStyle=orthogonalEdgeStyle;rounded=0;orthogonalLoop=1;jettySize=auto;html=1;" parent="b8WZnyrwi4I29LCCVTEn-41" source="wkWo7fPuSQBGfSVwWj5v-66" target="wkWo7fPuSQBGfSVwWj5v-71" edge="1">
          <mxGeometry relative="1" as="geometry" />
        </mxCell>
        <mxCell id="wkWo7fPuSQBGfSVwWj5v-73" value="&lt;font style=&quot;font-size: 13px;&quot;&gt;True&lt;/font&gt;" style="edgeLabel;html=1;align=center;verticalAlign=middle;resizable=0;points=[];" parent="wkWo7fPuSQBGfSVwWj5v-72" vertex="1" connectable="0">
          <mxGeometry x="-0.0909" y="1" relative="1" as="geometry">
            <mxPoint as="offset" />
          </mxGeometry>
        </mxCell>
        <mxCell id="wkWo7fPuSQBGfSVwWj5v-66" value="d &amp;lt; 25" style="rhombus;whiteSpace=wrap;html=1;fontSize=14;" parent="b8WZnyrwi4I29LCCVTEn-41" vertex="1">
          <mxGeometry x="320.5" y="889" width="59.5" height="47" as="geometry" />
        </mxCell>
        <mxCell id="wkWo7fPuSQBGfSVwWj5v-78" value="" style="edgeStyle=orthogonalEdgeStyle;rounded=0;orthogonalLoop=1;jettySize=auto;html=1;" parent="b8WZnyrwi4I29LCCVTEn-41" source="wkWo7fPuSQBGfSVwWj5v-71" target="wkWo7fPuSQBGfSVwWj5v-76" edge="1">
          <mxGeometry relative="1" as="geometry" />
        </mxCell>
        <mxCell id="wkWo7fPuSQBGfSVwWj5v-71" value="Close Gate" style="rounded=1;whiteSpace=wrap;html=1;shadow=0;comic=0;labelBackgroundColor=none;strokeWidth=1;fontFamily=Verdana;fontSize=14;align=center;arcSize=50;" parent="b8WZnyrwi4I29LCCVTEn-41" vertex="1">
          <mxGeometry x="281" y="985" width="140" height="40" as="geometry" />
        </mxCell>
        <mxCell id="wkWo7fPuSQBGfSVwWj5v-74" value="Rotate motor 0 deg" style="shape=note;whiteSpace=wrap;html=1;rounded=0;shadow=0;comic=0;labelBackgroundColor=none;strokeWidth=1;fontFamily=Verdana;fontSize=14;align=center;size=20;" parent="b8WZnyrwi4I29LCCVTEn-41" vertex="1">
          <mxGeometry x="460" y="926" width="104" height="84" as="geometry" />
        </mxCell>
        <mxCell id="wkWo7fPuSQBGfSVwWj5v-75" style="rounded=0;orthogonalLoop=1;jettySize=auto;html=1;entryX=0;entryY=0.5;entryDx=0;entryDy=0;entryPerimeter=0;dashed=1;endArrow=none;endFill=0;" parent="b8WZnyrwi4I29LCCVTEn-41" source="wkWo7fPuSQBGfSVwWj5v-71" target="wkWo7fPuSQBGfSVwWj5v-74" edge="1">
          <mxGeometry relative="1" as="geometry" />
        </mxCell>
        <mxCell id="wkWo7fPuSQBGfSVwWj5v-80" value="" style="edgeStyle=orthogonalEdgeStyle;rounded=0;orthogonalLoop=1;jettySize=auto;html=1;" parent="b8WZnyrwi4I29LCCVTEn-41" source="wkWo7fPuSQBGfSVwWj5v-76" target="b8WZnyrwi4I29LCCVTEn-6" edge="1">
          <mxGeometry relative="1" as="geometry" />
        </mxCell>
        <mxCell id="wkWo7fPuSQBGfSVwWj5v-76" value="Set Gate Status to False" style="rounded=1;whiteSpace=wrap;html=1;shadow=0;comic=0;labelBackgroundColor=none;strokeWidth=1;fontFamily=Verdana;fontSize=14;align=center;arcSize=50;" parent="b8WZnyrwi4I29LCCVTEn-41" vertex="1">
          <mxGeometry x="60" y="985" width="162" height="40" as="geometry" />
        </mxCell>
        <mxCell id="b8WZnyrwi4I29LCCVTEn-6" value="" style="ellipse;html=1;shape=endState;fillColor=#000000;strokeColor=#ff0000;" parent="b8WZnyrwi4I29LCCVTEn-41" vertex="1">
          <mxGeometry x="126" y="1050" width="30" height="30" as="geometry" />
        </mxCell>
        <mxCell id="saA55Hr_CYOuZeU3WH3S-5" style="edgeStyle=orthogonalEdgeStyle;rounded=0;orthogonalLoop=1;jettySize=auto;html=1;entryX=0;entryY=0.5;entryDx=0;entryDy=0;" parent="b8WZnyrwi4I29LCCVTEn-1" source="saA55Hr_CYOuZeU3WH3S-1" target="saA55Hr_CYOuZeU3WH3S-3" edge="1">
          <mxGeometry relative="1" as="geometry">
            <mxPoint x="410" y="70" as="targetPoint" />
            <Array as="points">
              <mxPoint x="314" y="75" />
              <mxPoint x="314" y="75" />
            </Array>
          </mxGeometry>
        </mxCell>
      </root>
    </mxGraphModel>
  </diagram>
  <diagram id="yGO2G23bdrX2GFEFYYVM" name="CheckOut Activity Diagram">
    <mxGraphModel dx="1434" dy="870" grid="1" gridSize="10" guides="1" tooltips="1" connect="1" arrows="1" fold="1" page="1" pageScale="1" pageWidth="1400" pageHeight="850" math="0" shadow="0">
      <root>
        <mxCell id="0" />
        <mxCell id="1" parent="0" />
        <mxCell id="Sy_s2TC2nibqWZQ6vZ97-1" value="Check Out Activity Diagram" style="swimlane;html=1;childLayout=stackLayout;startSize=20;rounded=0;shadow=0;comic=0;labelBackgroundColor=none;strokeWidth=1;fontFamily=Verdana;fontSize=16;align=center;" parent="1" vertex="1">
          <mxGeometry x="90" y="43" width="1160" height="1110" as="geometry" />
        </mxCell>
        <mxCell id="Sy_s2TC2nibqWZQ6vZ97-2" value="Driver / Vehicle" style="swimlane;html=1;startSize=20;fontSize=16;" parent="Sy_s2TC2nibqWZQ6vZ97-1" vertex="1">
          <mxGeometry y="20" width="300" height="1090" as="geometry" />
        </mxCell>
        <mxCell id="Sy_s2TC2nibqWZQ6vZ97-3" value="" style="edgeStyle=orthogonalEdgeStyle;rounded=0;orthogonalLoop=1;jettySize=auto;html=1;" parent="Sy_s2TC2nibqWZQ6vZ97-2" source="Sy_s2TC2nibqWZQ6vZ97-4" target="Sy_s2TC2nibqWZQ6vZ97-6" edge="1">
          <mxGeometry relative="1" as="geometry" />
        </mxCell>
        <mxCell id="Sy_s2TC2nibqWZQ6vZ97-4" value="" style="ellipse;whiteSpace=wrap;html=1;rounded=0;shadow=0;comic=0;labelBackgroundColor=none;strokeWidth=1;fillColor=#000000;fontFamily=Verdana;fontSize=12;align=center;" parent="Sy_s2TC2nibqWZQ6vZ97-2" vertex="1">
          <mxGeometry x="20" y="30" width="40" height="40" as="geometry" />
        </mxCell>
        <mxCell id="Sy_s2TC2nibqWZQ6vZ97-6" value="Driver drives toward exit gate" style="rounded=1;whiteSpace=wrap;html=1;shadow=0;comic=0;labelBackgroundColor=none;strokeWidth=1;fontFamily=Verdana;fontSize=16;align=center;arcSize=50;" parent="Sy_s2TC2nibqWZQ6vZ97-2" vertex="1">
          <mxGeometry x="100" y="35" width="190" height="45" as="geometry" />
        </mxCell>
        <mxCell id="Sy_s2TC2nibqWZQ6vZ97-127" value="Proceed to Payment" style="rounded=1;whiteSpace=wrap;html=1;shadow=0;comic=0;labelBackgroundColor=none;strokeWidth=1;fontFamily=Verdana;fontSize=16;align=center;arcSize=50;" parent="Sy_s2TC2nibqWZQ6vZ97-2" vertex="1">
          <mxGeometry x="40" y="210" width="145" height="47" as="geometry" />
        </mxCell>
        <mxCell id="Sy_s2TC2nibqWZQ6vZ97-136" value="Authorize Payment" style="rounded=1;whiteSpace=wrap;html=1;shadow=0;comic=0;labelBackgroundColor=none;strokeWidth=1;fontFamily=Verdana;fontSize=16;align=center;arcSize=50;" parent="Sy_s2TC2nibqWZQ6vZ97-2" vertex="1">
          <mxGeometry x="20" y="300" width="165" height="46" as="geometry" />
        </mxCell>
        <mxCell id="Sy_s2TC2nibqWZQ6vZ97-7" style="edgeStyle=orthogonalEdgeStyle;rounded=0;orthogonalLoop=1;jettySize=auto;html=1;entryX=0.5;entryY=0;entryDx=0;entryDy=0;exitX=0.5;exitY=1;exitDx=0;exitDy=0;" parent="Sy_s2TC2nibqWZQ6vZ97-1" edge="1">
          <mxGeometry relative="1" as="geometry">
            <mxPoint x="56" y="617" as="sourcePoint" />
            <Array as="points">
              <mxPoint x="56" y="690" />
              <mxPoint x="280" y="690" />
              <mxPoint x="280" y="240" />
              <mxPoint x="390" y="240" />
              <mxPoint x="390" y="90" />
              <mxPoint x="1030" y="90" />
            </Array>
          </mxGeometry>
        </mxCell>
        <mxCell id="Sy_s2TC2nibqWZQ6vZ97-8" style="edgeStyle=orthogonalEdgeStyle;rounded=0;orthogonalLoop=1;jettySize=auto;html=1;entryX=0.5;entryY=0;entryDx=0;entryDy=0;exitX=0.5;exitY=1;exitDx=0;exitDy=0;" parent="Sy_s2TC2nibqWZQ6vZ97-1" edge="1">
          <mxGeometry relative="1" as="geometry">
            <Array as="points">
              <mxPoint x="68" y="240" />
              <mxPoint x="320" y="240" />
              <mxPoint x="320" y="68" />
              <mxPoint x="531" y="68" />
            </Array>
            <mxPoint x="67.5" y="220" as="sourcePoint" />
          </mxGeometry>
        </mxCell>
        <mxCell id="Sy_s2TC2nibqWZQ6vZ97-80" value="Mobile App" style="swimlane;html=1;startSize=20;fontSize=16;" parent="Sy_s2TC2nibqWZQ6vZ97-1" vertex="1">
          <mxGeometry x="300" y="20" width="340" height="1090" as="geometry" />
        </mxCell>
        <mxCell id="Sy_s2TC2nibqWZQ6vZ97-83" value="Display Invoice" style="rounded=1;whiteSpace=wrap;html=1;shadow=0;comic=0;labelBackgroundColor=none;strokeWidth=1;fontFamily=Verdana;fontSize=16;align=center;arcSize=50;" parent="Sy_s2TC2nibqWZQ6vZ97-80" vertex="1">
          <mxGeometry x="98" y="215" width="147" height="37" as="geometry" />
        </mxCell>
        <mxCell id="Sy_s2TC2nibqWZQ6vZ97-134" value="Call Stripe Payment Link in Webview" style="rounded=1;whiteSpace=wrap;html=1;shadow=0;comic=0;labelBackgroundColor=none;strokeWidth=1;fontFamily=Verdana;fontSize=16;align=center;arcSize=50;" parent="Sy_s2TC2nibqWZQ6vZ97-80" vertex="1">
          <mxGeometry x="73" y="300" width="167" height="46" as="geometry" />
        </mxCell>
        <mxCell id="Sy_s2TC2nibqWZQ6vZ97-145" value="" style="edgeStyle=orthogonalEdgeStyle;rounded=0;orthogonalLoop=1;jettySize=auto;html=1;entryX=0.5;entryY=0;entryDx=0;entryDy=0;" parent="Sy_s2TC2nibqWZQ6vZ97-80" source="Sy_s2TC2nibqWZQ6vZ97-140" target="Sy_s2TC2nibqWZQ6vZ97-152" edge="1">
          <mxGeometry relative="1" as="geometry">
            <mxPoint x="68.5" y="487" as="targetPoint" />
          </mxGeometry>
        </mxCell>
        <mxCell id="Sy_s2TC2nibqWZQ6vZ97-146" value="Success" style="edgeLabel;html=1;align=center;verticalAlign=middle;resizable=0;points=[];" parent="Sy_s2TC2nibqWZQ6vZ97-145" vertex="1" connectable="0">
          <mxGeometry x="-0.0169" y="2" relative="1" as="geometry">
            <mxPoint y="-3" as="offset" />
          </mxGeometry>
        </mxCell>
        <mxCell id="Sy_s2TC2nibqWZQ6vZ97-148" value="" style="edgeStyle=orthogonalEdgeStyle;rounded=0;orthogonalLoop=1;jettySize=auto;html=1;" parent="Sy_s2TC2nibqWZQ6vZ97-80" source="Sy_s2TC2nibqWZQ6vZ97-140" target="Sy_s2TC2nibqWZQ6vZ97-147" edge="1">
          <mxGeometry relative="1" as="geometry" />
        </mxCell>
        <mxCell id="Sy_s2TC2nibqWZQ6vZ97-150" value="Fails" style="edgeLabel;html=1;align=center;verticalAlign=middle;resizable=0;points=[];" parent="Sy_s2TC2nibqWZQ6vZ97-148" vertex="1" connectable="0">
          <mxGeometry x="-0.3962" relative="1" as="geometry">
            <mxPoint x="5" as="offset" />
          </mxGeometry>
        </mxCell>
        <mxCell id="Sy_s2TC2nibqWZQ6vZ97-140" value="" style="rhombus;whiteSpace=wrap;html=1;" parent="Sy_s2TC2nibqWZQ6vZ97-80" vertex="1">
          <mxGeometry x="51" y="391" width="47" height="47" as="geometry" />
        </mxCell>
        <mxCell id="Sy_s2TC2nibqWZQ6vZ97-149" style="edgeStyle=orthogonalEdgeStyle;rounded=0;orthogonalLoop=1;jettySize=auto;html=1;entryX=1;entryY=0.25;entryDx=0;entryDy=0;exitX=0.75;exitY=0;exitDx=0;exitDy=0;" parent="Sy_s2TC2nibqWZQ6vZ97-80" source="Sy_s2TC2nibqWZQ6vZ97-147" target="Sy_s2TC2nibqWZQ6vZ97-134" edge="1">
          <mxGeometry relative="1" as="geometry" />
        </mxCell>
        <mxCell id="Sy_s2TC2nibqWZQ6vZ97-147" value="Notify user" style="rounded=1;whiteSpace=wrap;html=1;shadow=0;comic=0;labelBackgroundColor=none;strokeWidth=1;fontFamily=Verdana;fontSize=16;align=center;arcSize=50;" parent="Sy_s2TC2nibqWZQ6vZ97-80" vertex="1">
          <mxGeometry x="170" y="399.5" width="125" height="30" as="geometry" />
        </mxCell>
        <mxCell id="Sy_s2TC2nibqWZQ6vZ97-155" style="edgeStyle=orthogonalEdgeStyle;rounded=0;orthogonalLoop=1;jettySize=auto;html=1;" parent="Sy_s2TC2nibqWZQ6vZ97-80" target="Sy_s2TC2nibqWZQ6vZ97-153" edge="1">
          <mxGeometry relative="1" as="geometry">
            <mxPoint x="113" y="497" as="sourcePoint" />
          </mxGeometry>
        </mxCell>
        <mxCell id="Sy_s2TC2nibqWZQ6vZ97-156" style="edgeStyle=orthogonalEdgeStyle;rounded=0;orthogonalLoop=1;jettySize=auto;html=1;entryX=0.5;entryY=0;entryDx=0;entryDy=0;exitX=0.75;exitY=1;exitDx=0;exitDy=0;" parent="Sy_s2TC2nibqWZQ6vZ97-80" source="Sy_s2TC2nibqWZQ6vZ97-152" target="Sy_s2TC2nibqWZQ6vZ97-154" edge="1">
          <mxGeometry relative="1" as="geometry" />
        </mxCell>
        <mxCell id="Sy_s2TC2nibqWZQ6vZ97-152" value="" style="whiteSpace=wrap;html=1;rounded=0;shadow=0;comic=0;labelBackgroundColor=none;strokeWidth=1;fillColor=#000000;fontFamily=Verdana;fontSize=12;align=center;rotation=0;" parent="Sy_s2TC2nibqWZQ6vZ97-80" vertex="1">
          <mxGeometry x="86.5" y="486" width="147" height="10" as="geometry" />
        </mxCell>
        <mxCell id="Sy_s2TC2nibqWZQ6vZ97-159" style="edgeStyle=orthogonalEdgeStyle;rounded=0;orthogonalLoop=1;jettySize=auto;html=1;entryX=0.25;entryY=0;entryDx=0;entryDy=0;" parent="Sy_s2TC2nibqWZQ6vZ97-80" source="Sy_s2TC2nibqWZQ6vZ97-153" target="Sy_s2TC2nibqWZQ6vZ97-157" edge="1">
          <mxGeometry relative="1" as="geometry" />
        </mxCell>
        <mxCell id="Sy_s2TC2nibqWZQ6vZ97-153" value="Update Payment Status" style="rounded=1;whiteSpace=wrap;html=1;shadow=0;comic=0;labelBackgroundColor=none;strokeWidth=1;fontFamily=Verdana;fontSize=16;align=center;arcSize=50;" parent="Sy_s2TC2nibqWZQ6vZ97-80" vertex="1">
          <mxGeometry x="14" y="540" width="150" height="42" as="geometry" />
        </mxCell>
        <mxCell id="Sy_s2TC2nibqWZQ6vZ97-160" style="edgeStyle=orthogonalEdgeStyle;rounded=0;orthogonalLoop=1;jettySize=auto;html=1;entryX=0.75;entryY=0;entryDx=0;entryDy=0;" parent="Sy_s2TC2nibqWZQ6vZ97-80" source="Sy_s2TC2nibqWZQ6vZ97-154" target="Sy_s2TC2nibqWZQ6vZ97-157" edge="1">
          <mxGeometry relative="1" as="geometry" />
        </mxCell>
        <mxCell id="Sy_s2TC2nibqWZQ6vZ97-154" value="Add Payment Entry" style="rounded=1;whiteSpace=wrap;html=1;shadow=0;comic=0;labelBackgroundColor=none;strokeWidth=1;fontFamily=Verdana;fontSize=16;align=center;arcSize=50;" parent="Sy_s2TC2nibqWZQ6vZ97-80" vertex="1">
          <mxGeometry x="174" y="540" width="126" height="42" as="geometry" />
        </mxCell>
        <mxCell id="Sy_s2TC2nibqWZQ6vZ97-162" value="" style="edgeStyle=orthogonalEdgeStyle;rounded=0;orthogonalLoop=1;jettySize=auto;html=1;" parent="Sy_s2TC2nibqWZQ6vZ97-80" source="Sy_s2TC2nibqWZQ6vZ97-157" target="Sy_s2TC2nibqWZQ6vZ97-161" edge="1">
          <mxGeometry relative="1" as="geometry" />
        </mxCell>
        <mxCell id="Sy_s2TC2nibqWZQ6vZ97-157" value="" style="whiteSpace=wrap;html=1;rounded=0;shadow=0;comic=0;labelBackgroundColor=none;strokeWidth=1;fillColor=#000000;fontFamily=Verdana;fontSize=12;align=center;rotation=0;" parent="Sy_s2TC2nibqWZQ6vZ97-80" vertex="1">
          <mxGeometry x="83" y="635" width="147" height="10" as="geometry" />
        </mxCell>
        <mxCell id="3ujvOzUSk9h73vVkKbfM-1" value="" style="edgeStyle=orthogonalEdgeStyle;rounded=0;orthogonalLoop=1;jettySize=auto;html=1;" parent="Sy_s2TC2nibqWZQ6vZ97-80" source="Sy_s2TC2nibqWZQ6vZ97-161" target="Sy_s2TC2nibqWZQ6vZ97-163" edge="1">
          <mxGeometry relative="1" as="geometry" />
        </mxCell>
        <mxCell id="Sy_s2TC2nibqWZQ6vZ97-161" value="Display Payment Success" style="rounded=1;whiteSpace=wrap;html=1;shadow=0;comic=0;labelBackgroundColor=none;strokeWidth=1;fontFamily=Verdana;fontSize=16;align=center;arcSize=50;" parent="Sy_s2TC2nibqWZQ6vZ97-80" vertex="1">
          <mxGeometry x="66.5" y="689" width="180" height="37" as="geometry" />
        </mxCell>
        <mxCell id="Sy_s2TC2nibqWZQ6vZ97-163" value="Set Gate Status to True" style="rounded=1;whiteSpace=wrap;html=1;shadow=0;comic=0;labelBackgroundColor=none;strokeWidth=1;fontFamily=Verdana;fontSize=16;align=center;arcSize=50;" parent="Sy_s2TC2nibqWZQ6vZ97-80" vertex="1">
          <mxGeometry x="81" y="767" width="150" height="40" as="geometry" />
        </mxCell>
        <mxCell id="Sy_s2TC2nibqWZQ6vZ97-120" style="edgeStyle=orthogonalEdgeStyle;rounded=0;orthogonalLoop=1;jettySize=auto;html=1;entryX=0;entryY=0.5;entryDx=0;entryDy=0;" parent="Sy_s2TC2nibqWZQ6vZ97-1" source="Sy_s2TC2nibqWZQ6vZ97-6" target="Sy_s2TC2nibqWZQ6vZ97-87" edge="1">
          <mxGeometry relative="1" as="geometry">
            <Array as="points">
              <mxPoint x="370" y="78" />
              <mxPoint x="370" y="70" />
            </Array>
          </mxGeometry>
        </mxCell>
        <mxCell id="Sy_s2TC2nibqWZQ6vZ97-124" style="edgeStyle=orthogonalEdgeStyle;rounded=0;orthogonalLoop=1;jettySize=auto;html=1;entryX=1;entryY=0.5;entryDx=0;entryDy=0;exitX=0;exitY=0.75;exitDx=0;exitDy=0;" parent="Sy_s2TC2nibqWZQ6vZ97-1" source="Sy_s2TC2nibqWZQ6vZ97-125" target="Sy_s2TC2nibqWZQ6vZ97-83" edge="1">
          <mxGeometry relative="1" as="geometry">
            <Array as="points">
              <mxPoint x="623" y="777" />
              <mxPoint x="623" y="254" />
            </Array>
          </mxGeometry>
        </mxCell>
        <mxCell id="Sy_s2TC2nibqWZQ6vZ97-135" value="" style="edgeStyle=orthogonalEdgeStyle;rounded=0;orthogonalLoop=1;jettySize=auto;html=1;exitX=0.5;exitY=1;exitDx=0;exitDy=0;" parent="Sy_s2TC2nibqWZQ6vZ97-1" source="Sy_s2TC2nibqWZQ6vZ97-127" target="Sy_s2TC2nibqWZQ6vZ97-134" edge="1">
          <mxGeometry relative="1" as="geometry" />
        </mxCell>
        <mxCell id="Sy_s2TC2nibqWZQ6vZ97-143" style="edgeStyle=orthogonalEdgeStyle;rounded=0;orthogonalLoop=1;jettySize=auto;html=1;entryX=1;entryY=0.5;entryDx=0;entryDy=0;" parent="Sy_s2TC2nibqWZQ6vZ97-1" source="Sy_s2TC2nibqWZQ6vZ97-83" target="Sy_s2TC2nibqWZQ6vZ97-127" edge="1">
          <mxGeometry relative="1" as="geometry" />
        </mxCell>
        <mxCell id="Sy_s2TC2nibqWZQ6vZ97-138" value="" style="edgeStyle=orthogonalEdgeStyle;rounded=0;orthogonalLoop=1;jettySize=auto;html=1;" parent="Sy_s2TC2nibqWZQ6vZ97-1" source="Sy_s2TC2nibqWZQ6vZ97-134" target="Sy_s2TC2nibqWZQ6vZ97-136" edge="1">
          <mxGeometry relative="1" as="geometry" />
        </mxCell>
        <mxCell id="Sy_s2TC2nibqWZQ6vZ97-144" style="edgeStyle=orthogonalEdgeStyle;rounded=0;orthogonalLoop=1;jettySize=auto;html=1;entryX=0.5;entryY=0;entryDx=0;entryDy=0;" parent="Sy_s2TC2nibqWZQ6vZ97-1" source="Sy_s2TC2nibqWZQ6vZ97-136" target="Sy_s2TC2nibqWZQ6vZ97-140" edge="1">
          <mxGeometry relative="1" as="geometry">
            <Array as="points">
              <mxPoint x="123" y="387" />
              <mxPoint x="375" y="387" />
            </Array>
          </mxGeometry>
        </mxCell>
        <mxCell id="izXhXYawrcTsaU3czFSv-17" style="edgeStyle=orthogonalEdgeStyle;rounded=0;orthogonalLoop=1;jettySize=auto;html=1;entryX=0;entryY=0.5;entryDx=0;entryDy=0;exitX=0.5;exitY=1;exitDx=0;exitDy=0;" parent="Sy_s2TC2nibqWZQ6vZ97-1" source="Sy_s2TC2nibqWZQ6vZ97-163" target="izXhXYawrcTsaU3czFSv-2" edge="1">
          <mxGeometry relative="1" as="geometry" />
        </mxCell>
        <mxCell id="Sy_s2TC2nibqWZQ6vZ97-84" value="Gate Automation System" style="swimlane;html=1;startSize=20;fontSize=16;" parent="Sy_s2TC2nibqWZQ6vZ97-1" vertex="1">
          <mxGeometry x="640" y="20" width="520" height="1090" as="geometry" />
        </mxCell>
        <mxCell id="Sy_s2TC2nibqWZQ6vZ97-85" value="" style="edgeStyle=orthogonalEdgeStyle;rounded=0;orthogonalLoop=1;jettySize=auto;html=1;" parent="Sy_s2TC2nibqWZQ6vZ97-84" source="Sy_s2TC2nibqWZQ6vZ97-87" target="Sy_s2TC2nibqWZQ6vZ97-92" edge="1">
          <mxGeometry relative="1" as="geometry" />
        </mxCell>
        <mxCell id="Sy_s2TC2nibqWZQ6vZ97-86" style="rounded=0;orthogonalLoop=1;jettySize=auto;html=1;exitX=0.929;exitY=0.1;exitDx=0;exitDy=0;exitPerimeter=0;dashed=1;endArrow=none;endFill=0;" parent="Sy_s2TC2nibqWZQ6vZ97-84" source="Sy_s2TC2nibqWZQ6vZ97-87" target="Sy_s2TC2nibqWZQ6vZ97-114" edge="1">
          <mxGeometry relative="1" as="geometry" />
        </mxCell>
        <mxCell id="Sy_s2TC2nibqWZQ6vZ97-87" value="get distance from HC-SR04 sensor1" style="rounded=1;whiteSpace=wrap;html=1;shadow=0;comic=0;labelBackgroundColor=none;strokeWidth=1;fontFamily=Verdana;fontSize=16;align=center;arcSize=50;" parent="Sy_s2TC2nibqWZQ6vZ97-84" vertex="1">
          <mxGeometry x="90" y="30" width="172" height="40" as="geometry" />
        </mxCell>
        <mxCell id="Sy_s2TC2nibqWZQ6vZ97-88" style="edgeStyle=orthogonalEdgeStyle;rounded=0;orthogonalLoop=1;jettySize=auto;html=1;entryX=1;entryY=0.5;entryDx=0;entryDy=0;exitX=1;exitY=0.5;exitDx=0;exitDy=0;" parent="Sy_s2TC2nibqWZQ6vZ97-84" source="Sy_s2TC2nibqWZQ6vZ97-92" target="Sy_s2TC2nibqWZQ6vZ97-87" edge="1">
          <mxGeometry relative="1" as="geometry">
            <Array as="points">
              <mxPoint x="284" y="116" />
              <mxPoint x="284" y="50" />
            </Array>
          </mxGeometry>
        </mxCell>
        <mxCell id="Sy_s2TC2nibqWZQ6vZ97-89" value="&lt;font style=&quot;font-size: 13px;&quot;&gt;False&lt;/font&gt;" style="edgeLabel;html=1;align=center;verticalAlign=middle;resizable=0;points=[];" parent="Sy_s2TC2nibqWZQ6vZ97-88" vertex="1" connectable="0">
          <mxGeometry x="-0.6864" y="3" relative="1" as="geometry">
            <mxPoint x="1" y="3" as="offset" />
          </mxGeometry>
        </mxCell>
        <mxCell id="Sy_s2TC2nibqWZQ6vZ97-90" value="" style="edgeStyle=orthogonalEdgeStyle;rounded=0;orthogonalLoop=1;jettySize=auto;html=1;" parent="Sy_s2TC2nibqWZQ6vZ97-84" source="Sy_s2TC2nibqWZQ6vZ97-92" target="Sy_s2TC2nibqWZQ6vZ97-94" edge="1">
          <mxGeometry relative="1" as="geometry" />
        </mxCell>
        <mxCell id="Sy_s2TC2nibqWZQ6vZ97-91" value="&lt;font style=&quot;font-size: 13px;&quot;&gt;True&lt;/font&gt;" style="edgeLabel;html=1;align=center;verticalAlign=middle;resizable=0;points=[];" parent="Sy_s2TC2nibqWZQ6vZ97-90" vertex="1" connectable="0">
          <mxGeometry x="-0.4667" y="-1" relative="1" as="geometry">
            <mxPoint x="20" y="-3" as="offset" />
          </mxGeometry>
        </mxCell>
        <mxCell id="Sy_s2TC2nibqWZQ6vZ97-92" value="d &amp;lt; 50" style="rhombus;whiteSpace=wrap;html=1;fontSize=16;" parent="Sy_s2TC2nibqWZQ6vZ97-84" vertex="1">
          <mxGeometry x="140" y="92" width="75.5" height="47" as="geometry" />
        </mxCell>
        <mxCell id="Sy_s2TC2nibqWZQ6vZ97-93" value="" style="edgeStyle=orthogonalEdgeStyle;rounded=0;orthogonalLoop=1;jettySize=auto;html=1;" parent="Sy_s2TC2nibqWZQ6vZ97-84" source="Sy_s2TC2nibqWZQ6vZ97-94" target="Sy_s2TC2nibqWZQ6vZ97-96" edge="1">
          <mxGeometry relative="1" as="geometry" />
        </mxCell>
        <mxCell id="Sy_s2TC2nibqWZQ6vZ97-94" value="Activate Camera" style="rounded=1;whiteSpace=wrap;html=1;shadow=0;comic=0;labelBackgroundColor=none;strokeWidth=1;fontFamily=Verdana;fontSize=16;align=center;arcSize=50;" parent="Sy_s2TC2nibqWZQ6vZ97-84" vertex="1">
          <mxGeometry x="151" y="176" width="162" height="40" as="geometry" />
        </mxCell>
        <mxCell id="Sy_s2TC2nibqWZQ6vZ97-95" value="" style="edgeStyle=orthogonalEdgeStyle;rounded=0;orthogonalLoop=1;jettySize=auto;html=1;" parent="Sy_s2TC2nibqWZQ6vZ97-84" source="Sy_s2TC2nibqWZQ6vZ97-96" target="Sy_s2TC2nibqWZQ6vZ97-98" edge="1">
          <mxGeometry relative="1" as="geometry" />
        </mxCell>
        <mxCell id="Sy_s2TC2nibqWZQ6vZ97-96" value="Capture Image" style="rounded=1;whiteSpace=wrap;html=1;shadow=0;comic=0;labelBackgroundColor=none;strokeWidth=1;fontFamily=Verdana;fontSize=16;align=center;arcSize=50;" parent="Sy_s2TC2nibqWZQ6vZ97-84" vertex="1">
          <mxGeometry x="151" y="237" width="162" height="40" as="geometry" />
        </mxCell>
        <mxCell id="eEbDi5fTHYhTHNyIJJQG-7" style="edgeStyle=orthogonalEdgeStyle;rounded=0;orthogonalLoop=1;jettySize=auto;html=1;entryX=0.5;entryY=0;entryDx=0;entryDy=0;" edge="1" parent="Sy_s2TC2nibqWZQ6vZ97-84" source="Sy_s2TC2nibqWZQ6vZ97-98" target="Sy_s2TC2nibqWZQ6vZ97-100">
          <mxGeometry relative="1" as="geometry" />
        </mxCell>
        <mxCell id="Sy_s2TC2nibqWZQ6vZ97-98" value="Store on reusable local storage" style="rounded=1;whiteSpace=wrap;html=1;shadow=0;comic=0;labelBackgroundColor=none;strokeWidth=1;fontFamily=Verdana;fontSize=16;align=center;arcSize=50;" parent="Sy_s2TC2nibqWZQ6vZ97-84" vertex="1">
          <mxGeometry x="151" y="301" width="162" height="40" as="geometry" />
        </mxCell>
        <mxCell id="eEbDi5fTHYhTHNyIJJQG-5" style="edgeStyle=orthogonalEdgeStyle;rounded=0;orthogonalLoop=1;jettySize=auto;html=1;" edge="1" parent="Sy_s2TC2nibqWZQ6vZ97-84" source="Sy_s2TC2nibqWZQ6vZ97-100" target="Sy_s2TC2nibqWZQ6vZ97-105">
          <mxGeometry relative="1" as="geometry" />
        </mxCell>
        <mxCell id="Sy_s2TC2nibqWZQ6vZ97-100" value="Extract plate number image" style="rounded=1;whiteSpace=wrap;html=1;shadow=0;comic=0;labelBackgroundColor=none;strokeWidth=1;fontFamily=Verdana;fontSize=16;align=center;arcSize=50;" parent="Sy_s2TC2nibqWZQ6vZ97-84" vertex="1">
          <mxGeometry x="150" y="367" width="163" height="40" as="geometry" />
        </mxCell>
        <mxCell id="Sy_s2TC2nibqWZQ6vZ97-101" value="" style="edgeStyle=orthogonalEdgeStyle;rounded=0;orthogonalLoop=1;jettySize=auto;html=1;exitX=0;exitY=0.5;exitDx=0;exitDy=0;entryX=0.5;entryY=0;entryDx=0;entryDy=0;" parent="Sy_s2TC2nibqWZQ6vZ97-84" source="Sy_s2TC2nibqWZQ6vZ97-105" target="Sy_s2TC2nibqWZQ6vZ97-107" edge="1">
          <mxGeometry relative="1" as="geometry">
            <mxPoint x="98.5" y="500" as="targetPoint" />
          </mxGeometry>
        </mxCell>
        <mxCell id="Sy_s2TC2nibqWZQ6vZ97-102" value="&lt;font style=&quot;font-size: 13px;&quot;&gt;Success&lt;/font&gt;" style="edgeLabel;html=1;align=center;verticalAlign=middle;resizable=0;points=[];" parent="Sy_s2TC2nibqWZQ6vZ97-101" vertex="1" connectable="0">
          <mxGeometry x="-0.25" y="1" relative="1" as="geometry">
            <mxPoint x="3" y="-1" as="offset" />
          </mxGeometry>
        </mxCell>
        <mxCell id="Sy_s2TC2nibqWZQ6vZ97-103" value="" style="edgeStyle=orthogonalEdgeStyle;rounded=0;orthogonalLoop=1;jettySize=auto;html=1;entryX=1;entryY=0.25;entryDx=0;entryDy=0;exitX=0.926;exitY=0.468;exitDx=0;exitDy=0;exitPerimeter=0;" parent="Sy_s2TC2nibqWZQ6vZ97-84" source="Sy_s2TC2nibqWZQ6vZ97-105" edge="1">
          <mxGeometry relative="1" as="geometry">
            <mxPoint x="313" y="193" as="targetPoint" />
            <Array as="points">
              <mxPoint x="410" y="457" />
              <mxPoint x="410" y="193" />
            </Array>
          </mxGeometry>
        </mxCell>
        <mxCell id="Sy_s2TC2nibqWZQ6vZ97-104" value="&lt;font style=&quot;font-size: 13px;&quot;&gt;Fails&lt;/font&gt;" style="edgeLabel;html=1;align=center;verticalAlign=middle;resizable=0;points=[];" parent="Sy_s2TC2nibqWZQ6vZ97-103" vertex="1" connectable="0">
          <mxGeometry x="-0.4545" y="1" relative="1" as="geometry">
            <mxPoint x="-59" y="1" as="offset" />
          </mxGeometry>
        </mxCell>
        <mxCell id="Sy_s2TC2nibqWZQ6vZ97-105" value="" style="rhombus;whiteSpace=wrap;html=1;" parent="Sy_s2TC2nibqWZQ6vZ97-84" vertex="1">
          <mxGeometry x="208" y="435" width="47" height="47" as="geometry" />
        </mxCell>
        <mxCell id="Sy_s2TC2nibqWZQ6vZ97-106" value="" style="edgeStyle=orthogonalEdgeStyle;rounded=0;orthogonalLoop=1;jettySize=auto;html=1;" parent="Sy_s2TC2nibqWZQ6vZ97-84" source="Sy_s2TC2nibqWZQ6vZ97-107" target="Sy_s2TC2nibqWZQ6vZ97-110" edge="1">
          <mxGeometry relative="1" as="geometry" />
        </mxCell>
        <mxCell id="Sy_s2TC2nibqWZQ6vZ97-107" value="Query THE CheckIn Log" style="rounded=1;whiteSpace=wrap;html=1;shadow=0;comic=0;labelBackgroundColor=none;strokeWidth=1;fontFamily=Verdana;fontSize=16;align=center;arcSize=50;" parent="Sy_s2TC2nibqWZQ6vZ97-84" vertex="1">
          <mxGeometry x="28.5" y="493" width="141.5" height="40" as="geometry" />
        </mxCell>
        <mxCell id="Sy_s2TC2nibqWZQ6vZ97-108" value="" style="edgeStyle=orthogonalEdgeStyle;rounded=0;orthogonalLoop=1;jettySize=auto;html=1;" parent="Sy_s2TC2nibqWZQ6vZ97-84" source="Sy_s2TC2nibqWZQ6vZ97-110" target="Sy_s2TC2nibqWZQ6vZ97-119" edge="1">
          <mxGeometry relative="1" as="geometry" />
        </mxCell>
        <mxCell id="Sy_s2TC2nibqWZQ6vZ97-109" value="&lt;font style=&quot;font-size: 13px;&quot;&gt;Not Found&lt;/font&gt;" style="edgeLabel;html=1;align=center;verticalAlign=middle;resizable=0;points=[];" parent="Sy_s2TC2nibqWZQ6vZ97-108" vertex="1" connectable="0">
          <mxGeometry x="-0.4074" y="3" relative="1" as="geometry">
            <mxPoint x="10" y="2" as="offset" />
          </mxGeometry>
        </mxCell>
        <mxCell id="Sy_s2TC2nibqWZQ6vZ97-122" value="" style="edgeStyle=orthogonalEdgeStyle;rounded=0;orthogonalLoop=1;jettySize=auto;html=1;" parent="Sy_s2TC2nibqWZQ6vZ97-84" source="Sy_s2TC2nibqWZQ6vZ97-110" target="Sy_s2TC2nibqWZQ6vZ97-118" edge="1">
          <mxGeometry relative="1" as="geometry" />
        </mxCell>
        <mxCell id="Sy_s2TC2nibqWZQ6vZ97-123" value="&lt;font style=&quot;font-size: 13px;&quot;&gt;Found&lt;/font&gt;" style="edgeLabel;html=1;align=center;verticalAlign=middle;resizable=0;points=[];" parent="Sy_s2TC2nibqWZQ6vZ97-122" vertex="1" connectable="0">
          <mxGeometry x="-0.4" y="-1" relative="1" as="geometry">
            <mxPoint y="3" as="offset" />
          </mxGeometry>
        </mxCell>
        <mxCell id="eEbDi5fTHYhTHNyIJJQG-9" value="" style="edgeStyle=orthogonalEdgeStyle;rounded=0;orthogonalLoop=1;jettySize=auto;html=1;" edge="1" parent="Sy_s2TC2nibqWZQ6vZ97-84" source="Sy_s2TC2nibqWZQ6vZ97-110" target="Sy_s2TC2nibqWZQ6vZ97-118">
          <mxGeometry relative="1" as="geometry" />
        </mxCell>
        <mxCell id="Sy_s2TC2nibqWZQ6vZ97-110" value="" style="rhombus;whiteSpace=wrap;html=1;" parent="Sy_s2TC2nibqWZQ6vZ97-84" vertex="1">
          <mxGeometry x="75" y="560" width="47" height="47" as="geometry" />
        </mxCell>
        <mxCell id="Sy_s2TC2nibqWZQ6vZ97-111" style="rounded=0;orthogonalLoop=1;jettySize=auto;html=1;entryX=0.5;entryY=1;entryDx=0;entryDy=0;entryPerimeter=0;dashed=1;endArrow=none;endFill=0;" parent="Sy_s2TC2nibqWZQ6vZ97-84" edge="1">
          <mxGeometry relative="1" as="geometry">
            <mxPoint x="305.0736196319017" y="563.5" as="sourcePoint" />
          </mxGeometry>
        </mxCell>
        <mxCell id="Sy_s2TC2nibqWZQ6vZ97-112" value="get the RSVP of the driver using the plate number." style="shape=note;whiteSpace=wrap;html=1;rounded=0;shadow=0;comic=0;labelBackgroundColor=none;strokeWidth=1;fontFamily=Verdana;fontSize=16;align=center;size=20;" parent="Sy_s2TC2nibqWZQ6vZ97-84" vertex="1">
          <mxGeometry x="8" y="289" width="96" height="140" as="geometry" />
        </mxCell>
        <mxCell id="Sy_s2TC2nibqWZQ6vZ97-113" style="rounded=0;orthogonalLoop=1;jettySize=auto;html=1;entryX=0.5;entryY=1;entryDx=0;entryDy=0;entryPerimeter=0;endArrow=none;endFill=0;dashed=1;" parent="Sy_s2TC2nibqWZQ6vZ97-84" target="Sy_s2TC2nibqWZQ6vZ97-112" edge="1">
          <mxGeometry relative="1" as="geometry">
            <mxPoint x="52" y="490" as="sourcePoint" />
          </mxGeometry>
        </mxCell>
        <mxCell id="Sy_s2TC2nibqWZQ6vZ97-114" value="measures the distance between the gate and the vehicle approaching" style="shape=note;whiteSpace=wrap;html=1;rounded=0;shadow=0;comic=0;labelBackgroundColor=none;strokeWidth=1;fontFamily=Verdana;fontSize=16;align=center;size=20;" parent="Sy_s2TC2nibqWZQ6vZ97-84" vertex="1">
          <mxGeometry x="350" y="29" width="150" height="131" as="geometry" />
        </mxCell>
        <mxCell id="Sy_s2TC2nibqWZQ6vZ97-117" value="" style="ellipse;html=1;shape=endState;fillColor=#000000;strokeColor=#ff0000;" parent="Sy_s2TC2nibqWZQ6vZ97-84" vertex="1">
          <mxGeometry x="28.5" y="1009" width="30" height="30" as="geometry" />
        </mxCell>
        <mxCell id="Sy_s2TC2nibqWZQ6vZ97-126" value="" style="edgeStyle=orthogonalEdgeStyle;rounded=0;orthogonalLoop=1;jettySize=auto;html=1;" parent="Sy_s2TC2nibqWZQ6vZ97-84" source="Sy_s2TC2nibqWZQ6vZ97-118" target="Sy_s2TC2nibqWZQ6vZ97-125" edge="1">
          <mxGeometry relative="1" as="geometry" />
        </mxCell>
        <mxCell id="Sy_s2TC2nibqWZQ6vZ97-118" value="Compute Total &lt;br style=&quot;font-size: 16px;&quot;&gt;parking Fair" style="rounded=1;whiteSpace=wrap;html=1;shadow=0;comic=0;labelBackgroundColor=none;strokeWidth=1;fontFamily=Verdana;fontSize=16;align=center;arcSize=50;" parent="Sy_s2TC2nibqWZQ6vZ97-84" vertex="1">
          <mxGeometry x="28.5" y="647" width="140" height="43" as="geometry" />
        </mxCell>
        <mxCell id="Sy_s2TC2nibqWZQ6vZ97-119" value="Notify Admin" style="rounded=1;whiteSpace=wrap;html=1;shadow=0;comic=0;labelBackgroundColor=none;strokeWidth=1;fontFamily=Verdana;fontSize=16;align=center;arcSize=50;" parent="Sy_s2TC2nibqWZQ6vZ97-84" vertex="1">
          <mxGeometry x="243" y="563.5" width="140" height="40" as="geometry" />
        </mxCell>
        <mxCell id="Sy_s2TC2nibqWZQ6vZ97-125" value="Send Push Notification" style="rounded=1;whiteSpace=wrap;html=1;shadow=0;comic=0;labelBackgroundColor=none;strokeWidth=1;fontFamily=Verdana;fontSize=16;align=center;arcSize=50;" parent="Sy_s2TC2nibqWZQ6vZ97-84" vertex="1">
          <mxGeometry x="28.5" y="727" width="140" height="40" as="geometry" />
        </mxCell>
        <mxCell id="KVbqWlS3ORG-OUsOi8KH-2" value="" style="edgeStyle=orthogonalEdgeStyle;rounded=0;orthogonalLoop=1;jettySize=auto;html=1;" parent="Sy_s2TC2nibqWZQ6vZ97-84" source="izXhXYawrcTsaU3czFSv-2" target="KVbqWlS3ORG-OUsOi8KH-1" edge="1">
          <mxGeometry relative="1" as="geometry" />
        </mxCell>
        <mxCell id="izXhXYawrcTsaU3czFSv-2" value="Open Gate" style="rounded=1;whiteSpace=wrap;html=1;shadow=0;comic=0;labelBackgroundColor=none;strokeWidth=1;fontFamily=Verdana;fontSize=16;align=center;arcSize=50;" parent="Sy_s2TC2nibqWZQ6vZ97-84" vertex="1">
          <mxGeometry x="43" y="817" width="140" height="40" as="geometry" />
        </mxCell>
        <mxCell id="izXhXYawrcTsaU3czFSv-3" value="Rotate motor 180 deg" style="shape=note;whiteSpace=wrap;html=1;rounded=0;shadow=0;comic=0;labelBackgroundColor=none;strokeWidth=1;fontFamily=Verdana;fontSize=16;align=center;size=20;" parent="Sy_s2TC2nibqWZQ6vZ97-84" vertex="1">
          <mxGeometry x="206" y="700" width="94" height="79" as="geometry" />
        </mxCell>
        <mxCell id="izXhXYawrcTsaU3czFSv-4" style="rounded=0;orthogonalLoop=1;jettySize=auto;html=1;entryX=0.5;entryY=1;entryDx=0;entryDy=0;entryPerimeter=0;startArrow=none;startFill=0;dashed=1;endArrow=none;endFill=0;" parent="Sy_s2TC2nibqWZQ6vZ97-84" source="izXhXYawrcTsaU3czFSv-2" target="izXhXYawrcTsaU3czFSv-3" edge="1">
          <mxGeometry relative="1" as="geometry" />
        </mxCell>
        <mxCell id="6lMHS2hmSquiSGJZLKDJ-4" style="edgeStyle=orthogonalEdgeStyle;rounded=0;orthogonalLoop=1;jettySize=auto;html=1;entryX=1;entryY=0.5;entryDx=0;entryDy=0;exitX=1;exitY=0.5;exitDx=0;exitDy=0;" parent="Sy_s2TC2nibqWZQ6vZ97-84" source="izXhXYawrcTsaU3czFSv-11" target="auWZgAfxdYryLcUGA2cH-1" edge="1">
          <mxGeometry relative="1" as="geometry">
            <Array as="points">
              <mxPoint x="500" y="934" />
              <mxPoint x="500" y="837" />
            </Array>
          </mxGeometry>
        </mxCell>
        <mxCell id="6lMHS2hmSquiSGJZLKDJ-5" value="&lt;font style=&quot;font-size: 13px;&quot;&gt;False&lt;/font&gt;" style="edgeLabel;html=1;align=center;verticalAlign=middle;resizable=0;points=[];" parent="6lMHS2hmSquiSGJZLKDJ-4" vertex="1" connectable="0">
          <mxGeometry x="-0.7086" y="-1" relative="1" as="geometry">
            <mxPoint x="15" y="-1" as="offset" />
          </mxGeometry>
        </mxCell>
        <mxCell id="izXhXYawrcTsaU3czFSv-11" value="d &amp;lt; 25" style="rhombus;whiteSpace=wrap;html=1;fontSize=16;" parent="Sy_s2TC2nibqWZQ6vZ97-84" vertex="1">
          <mxGeometry x="368" y="910" width="63.5" height="47" as="geometry" />
        </mxCell>
        <mxCell id="izXhXYawrcTsaU3czFSv-13" value="Close Gate" style="rounded=1;whiteSpace=wrap;html=1;shadow=0;comic=0;labelBackgroundColor=none;strokeWidth=1;fontFamily=Verdana;fontSize=16;align=center;arcSize=50;" parent="Sy_s2TC2nibqWZQ6vZ97-84" vertex="1">
          <mxGeometry x="151" y="913" width="140" height="40" as="geometry" />
        </mxCell>
        <mxCell id="izXhXYawrcTsaU3czFSv-9" value="" style="edgeStyle=orthogonalEdgeStyle;rounded=0;orthogonalLoop=1;jettySize=auto;html=1;" parent="Sy_s2TC2nibqWZQ6vZ97-84" source="izXhXYawrcTsaU3czFSv-11" target="izXhXYawrcTsaU3czFSv-13" edge="1">
          <mxGeometry relative="1" as="geometry" />
        </mxCell>
        <mxCell id="izXhXYawrcTsaU3czFSv-10" value="&lt;font style=&quot;font-size: 13px;&quot;&gt;True&lt;/font&gt;" style="edgeLabel;html=1;align=center;verticalAlign=middle;resizable=0;points=[];" parent="izXhXYawrcTsaU3czFSv-9" vertex="1" connectable="0">
          <mxGeometry x="-0.0909" y="1" relative="1" as="geometry">
            <mxPoint x="-2" y="-3" as="offset" />
          </mxGeometry>
        </mxCell>
        <mxCell id="6lMHS2hmSquiSGJZLKDJ-8" style="edgeStyle=orthogonalEdgeStyle;rounded=0;orthogonalLoop=1;jettySize=auto;html=1;entryX=1;entryY=0.5;entryDx=0;entryDy=0;" parent="Sy_s2TC2nibqWZQ6vZ97-84" source="izXhXYawrcTsaU3czFSv-16" target="Sy_s2TC2nibqWZQ6vZ97-117" edge="1">
          <mxGeometry relative="1" as="geometry" />
        </mxCell>
        <mxCell id="izXhXYawrcTsaU3czFSv-16" value="Set Gate Status to False" style="rounded=1;whiteSpace=wrap;html=1;shadow=0;comic=0;labelBackgroundColor=none;strokeWidth=1;fontFamily=Verdana;fontSize=16;align=center;arcSize=50;" parent="Sy_s2TC2nibqWZQ6vZ97-84" vertex="1">
          <mxGeometry x="151" y="1002" width="140" height="44" as="geometry" />
        </mxCell>
        <mxCell id="izXhXYawrcTsaU3czFSv-12" value="" style="edgeStyle=orthogonalEdgeStyle;rounded=0;orthogonalLoop=1;jettySize=auto;html=1;" parent="Sy_s2TC2nibqWZQ6vZ97-84" source="izXhXYawrcTsaU3czFSv-13" target="izXhXYawrcTsaU3czFSv-16" edge="1">
          <mxGeometry relative="1" as="geometry" />
        </mxCell>
        <mxCell id="auWZgAfxdYryLcUGA2cH-2" value="" style="edgeStyle=orthogonalEdgeStyle;rounded=0;orthogonalLoop=1;jettySize=auto;html=1;" parent="Sy_s2TC2nibqWZQ6vZ97-84" source="KVbqWlS3ORG-OUsOi8KH-1" target="auWZgAfxdYryLcUGA2cH-1" edge="1">
          <mxGeometry relative="1" as="geometry" />
        </mxCell>
        <mxCell id="KVbqWlS3ORG-OUsOi8KH-1" value="10 secs" style="html=1;shape=mxgraph.sysml.timeEvent;strokeWidth=2;verticalLabelPosition=bottom;verticalAlignment=top;fontSize=16;" parent="Sy_s2TC2nibqWZQ6vZ97-84" vertex="1">
          <mxGeometry x="231" y="817" width="35" height="40" as="geometry" />
        </mxCell>
        <mxCell id="6lMHS2hmSquiSGJZLKDJ-3" style="edgeStyle=orthogonalEdgeStyle;rounded=0;orthogonalLoop=1;jettySize=auto;html=1;entryX=0.5;entryY=0;entryDx=0;entryDy=0;" parent="Sy_s2TC2nibqWZQ6vZ97-84" source="auWZgAfxdYryLcUGA2cH-1" target="izXhXYawrcTsaU3czFSv-11" edge="1">
          <mxGeometry relative="1" as="geometry" />
        </mxCell>
        <mxCell id="auWZgAfxdYryLcUGA2cH-1" value="get distance from HC-SR04 sensor2" style="rounded=1;whiteSpace=wrap;html=1;shadow=0;comic=0;labelBackgroundColor=none;strokeWidth=1;fontFamily=Verdana;fontSize=16;align=center;arcSize=50;" parent="Sy_s2TC2nibqWZQ6vZ97-84" vertex="1">
          <mxGeometry x="320" y="817" width="160" height="40" as="geometry" />
        </mxCell>
        <mxCell id="6lMHS2hmSquiSGJZLKDJ-1" value="used to determin whether the vehicle has passed the gate or not." style="shape=note;whiteSpace=wrap;html=1;rounded=0;shadow=0;comic=0;labelBackgroundColor=none;strokeWidth=1;fontFamily=Verdana;fontSize=16;align=center;size=20;" parent="Sy_s2TC2nibqWZQ6vZ97-84" vertex="1">
          <mxGeometry x="383" y="620" width="127" height="130" as="geometry" />
        </mxCell>
        <mxCell id="6lMHS2hmSquiSGJZLKDJ-2" style="rounded=0;orthogonalLoop=1;jettySize=auto;html=1;entryX=0.5;entryY=1;entryDx=0;entryDy=0;entryPerimeter=0;dashed=1;endArrow=none;endFill=0;" parent="Sy_s2TC2nibqWZQ6vZ97-84" source="auWZgAfxdYryLcUGA2cH-1" target="6lMHS2hmSquiSGJZLKDJ-1" edge="1">
          <mxGeometry relative="1" as="geometry" />
        </mxCell>
        <mxCell id="6lMHS2hmSquiSGJZLKDJ-6" value="Rotate motor 0 deg" style="shape=note;whiteSpace=wrap;html=1;rounded=0;shadow=0;comic=0;labelBackgroundColor=none;strokeWidth=1;fontFamily=Verdana;fontSize=16;align=center;size=20;" parent="Sy_s2TC2nibqWZQ6vZ97-84" vertex="1">
          <mxGeometry x="383" y="990" width="85" height="90" as="geometry" />
        </mxCell>
        <mxCell id="6lMHS2hmSquiSGJZLKDJ-7" style="rounded=0;orthogonalLoop=1;jettySize=auto;html=1;entryX=0;entryY=0.5;entryDx=0;entryDy=0;entryPerimeter=0;dashed=1;endArrow=none;endFill=0;" parent="Sy_s2TC2nibqWZQ6vZ97-84" source="izXhXYawrcTsaU3czFSv-13" target="6lMHS2hmSquiSGJZLKDJ-6" edge="1">
          <mxGeometry relative="1" as="geometry" />
        </mxCell>
      </root>
    </mxGraphModel>
  </diagram>
  <diagram id="rLwJshE3nMhlp3PtHoY7" name="Lot Occupancy System">
    <mxGraphModel dx="1434" dy="836" grid="1" gridSize="10" guides="1" tooltips="1" connect="1" arrows="1" fold="1" page="1" pageScale="1" pageWidth="1400" pageHeight="850" math="0" shadow="0">
      <root>
        <mxCell id="0" />
        <mxCell id="1" parent="0" />
      </root>
    </mxGraphModel>
  </diagram>
</mxfile>
